<?xml version="1.0" encoding="UTF-8" standalone="no"?>
<svg
   xmlns:dc="http://purl.org/dc/elements/1.1/"
   xmlns:cc="http://creativecommons.org/ns#"
   xmlns:rdf="http://www.w3.org/1999/02/22-rdf-syntax-ns#"
   xmlns:svg="http://www.w3.org/2000/svg"
   xmlns="http://www.w3.org/2000/svg"
   xmlns:xlink="http://www.w3.org/1999/xlink"
   xmlns:sodipodi="http://sodipodi.sourceforge.net/DTD/sodipodi-0.dtd"
   xmlns:inkscape="http://www.inkscape.org/namespaces/inkscape"
   width="296.926mm"
   height="209.973mm"
   viewBox="0 0 3507 2480"
   version="1.2"
   id="svg176"
   sodipodi:docname="topo.svg"
   inkscape:version="0.92.2 (5c3e80d, 2017-08-06)">
  <metadata
     id="metadata180">
    <rdf:RDF>
      <cc:Work
         rdf:about="">
        <dc:format>image/svg+xml</dc:format>
        <dc:type
           rdf:resource="http://purl.org/dc/dcmitype/StillImage" />
      </cc:Work>
    </rdf:RDF>
  </metadata>
  <sodipodi:namedview
     pagecolor="#ffffff"
     bordercolor="#666666"
     borderopacity="1"
     objecttolerance="10"
     gridtolerance="10"
     guidetolerance="10"
     inkscape:pageopacity="0"
     inkscape:pageshadow="2"
     inkscape:window-width="3840"
     inkscape:window-height="2080"
     id="namedview178"
     showgrid="false"
     inkscape:zoom="1.189518"
     inkscape:cx="179.9234"
     inkscape:cy="167.8482"
     inkscape:window-x="-11"
     inkscape:window-y="-11"
     inkscape:window-maximized="1"
     inkscape:current-layer="g150" />
  <desc
     id="desc2">Generated with Qt</desc>
  <defs
     id="defs4">
    <linearGradient
       inkscape:collect="always"
       id="linearGradient1153">
      <stop
         style="stop-color:#646464;stop-opacity:0.78431374"
         offset="0"
         id="stop1149" />
      <stop
         style="stop-color:#646464;stop-opacity:0"
         offset="1"
         id="stop1151" />
    </linearGradient>
    <clipPath
       clipPathUnits="userSpaceOnUse"
       id="clipPath1787">
      <rect
         style="fill:#6abaf9;fill-opacity:1;stroke:none;stroke-width:3.12500501;stroke-opacity:1"
         id="rect1789"
         width="3507.1265"
         height="2479.3823"
         x="-4.0760346e-009"
         y="3.5527194e-013" />
    </clipPath>
    <radialGradient
       inkscape:collect="always"
       xlink:href="#linearGradient1153"
       id="radialGradient1157"
       cx="3508"
       cy="2951.5852"
       fx="3508"
       fy="2951.5852"
       r="2061.9784"
       gradientTransform="matrix(9.3075375e-8,-1.2027284,1.7012786,1.243953e-7,-1513.4692,6699.171)"
       gradientUnits="userSpaceOnUse" />
  </defs>
  <g
     id="g174"
     clip-path="url(#clipPath1787)"
     stroke-linejoin="bevel"
     stroke-linecap="square"
     stroke-width="1"
     stroke="black"
     fill-rule="evenodd"
     fill="none">
    <g
       font-size="34.375"
       font-weight="400"
       font-style="normal"
       id="g6"
       font-family="MS Shell Dlg 2"
       stroke-opacity="1"
       stroke-linejoin="bevel"
       stroke-linecap="square"
       stroke-width="1"
       stroke="#000000"
       fill="none"
       transform="matrix(1,0,0,1,0,0)" />
    <g
       transform="matrix(11.8081,0,0,11.8081,0,0)"
       font-size="34.375"
       font-weight="400"
       font-style="normal"
       id="g8"
       font-family="MS Shell Dlg 2"
       stroke-opacity="1"
       stroke-linejoin="bevel"
       stroke-linecap="square"
       stroke-width="1"
       stroke="#000000"
       fill="none" />
    <g
       transform="matrix(11.8081,0,0,11.8081,0,0)"
       font-size="34.375"
       font-weight="400"
       font-style="normal"
       id="g14"
       font-family="MS Shell Dlg 2"
       stroke-opacity="1"
       stroke-linejoin="bevel"
       stroke-linecap="square"
       stroke-width="1"
       stroke="#000000"
       fill="none" />
    <g
       transform="matrix(11.8081,0,0,11.8081,0,0)"
       font-size="34.375"
       font-weight="400"
       font-style="normal"
       id="g16"
       font-family="MS Shell Dlg 2"
       stroke-opacity="1"
       stroke-linejoin="bevel"
       stroke-linecap="square"
       stroke-width="1"
       stroke="#000000"
       fill="none" />
    <g
       transform="matrix(11.8081,0,0,11.8081,-4.19507e-14,4.19507e-14)"
       font-size="34.375"
       font-weight="400"
       font-style="normal"
       id="g18"
       font-family="MS Shell Dlg 2"
       stroke-opacity="1"
       stroke-linejoin="bevel"
       stroke-linecap="square"
       stroke-width="1"
       stroke="#000000"
       fill="none" />
    <g
       transform="matrix(11.8081,0,0,11.8081,-4.19507e-14,4.19507e-14)"
       font-size="34.375"
       font-weight="400"
       font-style="normal"
       id="g20"
       font-family="MS Shell Dlg 2"
       stroke-opacity="1"
       stroke-linejoin="bevel"
       stroke-linecap="square"
       stroke-width="1"
       stroke="#000000"
       fill="none" />
    <g
       transform="matrix(11.8081,0,0,11.8081,-4.19507e-14,4.19507e-14)"
       font-size="34.375"
       font-weight="400"
       font-style="normal"
       id="g26"
       font-family="MS Shell Dlg 2"
       stroke-opacity="1"
       stroke-linejoin="bevel"
       stroke-linecap="square"
       stroke-width="1"
       stroke="#000000"
       fill="none" />
    <g
       transform="matrix(0.999751,0,0,0.999751,-4.19507e-14,4.19507e-14)"
       font-size="34.375"
       font-weight="400"
       font-style="normal"
       id="g30"
       font-family="MS Shell Dlg 2"
       stroke="none"
       fill-opacity="0"
       fill="#000000">
      <path
         style="vector-effect:non-scaling-stroke;fill-rule:evenodd"
         d="m 0,0 c 1169.3333,0 2338.6667,0 3508,0 0,826.66667 0,1653.3333 0,2480 -1169.3333,0 -2338.6667,0 -3508,0 C 0,1653.3333 0,826.66667 0,0 Z"
         id="path28"
         inkscape:connector-curvature="0" />
    </g>
    <g
       transform="matrix(0.999751,0,0,0.999751,-4.19507e-14,4.19507e-14)"
       font-size="34.375"
       font-weight="400"
       font-style="normal"
       id="g150"
       font-family="MS Shell Dlg 2"
       stroke-opacity="1"
       stroke-linejoin="bevel"
       stroke-linecap="square"
       stroke-width="3.07087"
       stroke="#884247"
       fill="none">
      <path
         id="path148"
         style="vector-effect:none;fill-rule:evenodd;stroke:url(#radialGradient1157);stroke-opacity:1"
         d="m 1741.53,2572.62 c -33.5077,-16.2937 -97.306,-24.2041 -94.01,-70.89 30.8315,-47.7295 92.404,-62.613 132.48,-102.02 0.9628,3.4529 2.5969,28.2031 10.12,36.49 2.6978,21.6721 -15.3621,31.6756 -22.34,48.15 16.3574,29.4314 2.6448,69.9185 4.89,97.06 -11.2881,1.4824 -20.9969,-5.1836 -31.14,-8.79 z m 2117.27,-263.4 c -48.5708,-14.4725 -146.0423,-27.51 -131.66,-98.27 24.5972,-72.4422 17.0242,-155.825 48.81,-223.88 20.9431,-23.7732 51.5037,-35.4455 82.85,-33.15 0,-134.2033 0,-268.4067 0,-402.61 -52.5299,15.0082 -77.0777,-56.7319 -116.56,-66.42 -3.6223,36.1335 -42.4587,57.4628 -54.84,82.43 -13.6457,29.5285 -21.0859,74.9679 -54.74,84.87 -4.9994,26.5712 10.7757,57.7506 -16.76,78.06 -6.631,23.1277 -4.9827,62.5808 -42.81,66.7 -5.9556,19.9654 -51.3967,82.8107 -26.41,66.31 -15.1157,31.602 -49.3457,53.6207 -51.07,89.34 -34.8911,37.0478 -45.8978,96.4748 -95.5,118.85 -15.8475,21.8561 -31.0584,49.0169 -46.93,67.33 -44.8219,7.9344 -31.8836,69.985 -78.76,75.62 -41.5389,26.7827 10.615,70.4635 2.39,108.84 11.8749,51.2089 5.3454,109.6858 -30.6,147.84 -19.144,37.9809 -36.2085,77.3145 -47.06,117.8 -31.9212,27.1219 -33.047,-49.3899 -58.98,-60.28 -31.921,-42.7254 -96.6672,-25.0517 -141.28,-18.99 -20.1011,9.6104 -1.2532,-34.1678 -16.19,-43.01 -6.8389,-48.2105 -68.1716,-59.1864 -97.85,-90.33 -50.9367,-30.1763 -97.8773,-71.8261 -160.23,-73.61 -78.8753,-24.2596 -101.2942,-128.2197 -57.3,-192.51 9.4401,-39.26 23.7487,-77.4324 57.85,-99.79 -9.8368,-31.0388 7.6824,-63.4513 -6.17,-93.66 -12.9543,-67.7119 -31.0681,-139.9192 -17.73,-208.98 3.25,-33.9157 23.2363,-64.9538 31.93,-97.05 -5.321,-35.6128 19.5834,-67.4449 19.61,-103.05 11.1821,-37.4266 22.0021,-80.7767 51.47,-105.02 21.5195,-45.3622 85.4135,-56.3087 97.02,-108.21 10.637,-11.1622 -9.7204,-17.2556 0.21,-30.54 31.3601,-34.8891 62.2069,-74.5435 83.99,-116.11 15.7816,-22.3417 51.8339,-91.6458 32.95,-70.92 36.3103,-25.8457 57.6083,-79.49368 105.42,-81.288 6.0594,-28.01449 42.1692,-14.65711 40.06,-49.321 70.1302,-35.03692 153.6875,-73.862 231.19,-46.858 28.6351,-12.31796 61.0108,2.45245 90.1,10.883 46.9767,-1.81859 86.3202,30.02334 117.91,55.051 19.7854,13.63714 31.7682,9.14585 24.98,-14.788 -14.4779,-28.63969 -9.8418,-59.53889 10.74,-81.71 -6.6736,-23.00438 29.6733,-34.80425 -2.15,-52.773 4.1322,-42.74168 23.4242,-75.63793 19.8,-119.496 3.843,-48.75427 29.5779,-101.74505 69.42,-125.538 18.5563,3.76143 56.2103,-34.3808 31.97,-32.528 10.1372,-51.1409 58.3268,-74.06818 100.91,-94.282 -4.0518,-29.46309 17.6104,-85.70916 -30.27,-63.105 -36.3957,1.17894 -72.8088,-14.82536 -109.16,-9.21 -15.9505,-18.60057 -52.439,-7.1198 -65.46,-35.284 -35.6853,11.18705 -37.795,-40.88638 -69.63,-31.219 -17.614,-14.58191 -37.4962,-23.45643 -45.84,-46.241 -35.9123,-11.11591 -75.1499,-29.24588 -74.09,-73.751 11.6987,-25.19985 23.0334,-48.34856 -16.41,-44.631 -27.9441,3.25472 -44.763,-19.88564 -44.38,-40.167 -23.3261,3.11485 -46.7662,9.98516 -56.58,-17.5396 -43.8948,-15.43357 -91.5545,-60.040762 -137.95,-22.8557 -11.4376,12.064928 -5.554,68.25383 -38.85,46.7113 -14.8955,-28.226169 -38.7018,10.81125 -60.92,-6.062 -33.1416,-14.001964 -30.7887,52.55769 -64.3,23.614 -12.9113,-11.40904 -15.9767,24.81042 -30.74,27.879 -14.4614,26.00631 -43.4824,7.22792 -53.06,-9.576 -45.8358,16.02018 8.4632,-40.8227 -24.18,-52.8226 -23.9518,-18.148825 -36.9667,-41.324424 -37.09,-71.7564 -23.3635,-1.786195 -77.2862,36.038777 -76.45,-8.4107 2.975,-18.7398696 36.0122,-8.2393166 12.39,-31.153 12.6093,-43.053216 28.6065,-102.66566 83,-104.1283 24.1014,-2.30826 36.8794,-15.17906 46.73,-34.033 16.6388,-4.43024 27.3557,19.49292 48.91,7.638 31.5319,2.83601 14.0985,48.39605 51.39,46.908 20.4985,-6.95484 37.4953,-8.52122 59.82,-3.267 44.7276,-15.53342 14.2725,60.939915 53,44.0657 24.1109,38.602489 50.8248,-18.390081 79.27,-22.9231 7.7785,-17.4574 40.2483,-14.17662 25.51,-38.3756 1.9564,-30.92722 19.9921,-66.40248 41.46,-80.55 -15.063,-11.16495 -1.1672,-28.07522 0.85,-41.927 m 533.03,2508.54 c -41.3835,-6.1577 -109.9254,-25.6052 -89.48,-82.87 18.2389,-56.0052 10.5208,-130.028 58.04,-170.78 59.1016,-0.1094 33.8227,-134.0302 31.44,-89.883 -3.1408,-136.2298 6.2197,-281.9606 -4.57,-412.377 -50.3833,-14.738 -93.32,-58.5765 -123.81,-93.58 -17.4566,13.0415 -27.9564,16.9975 -23.22,41.58 -2.2909,34.844 -38.9194,59.8434 -54.97,82.84 3.1039,38.4941 -21.8465,79.687 -46.4,103.32 6.323,37.824 -11.0706,72.1215 -28.13,101.86 2.8119,31.7659 -54.2568,39.251 -35.89,76.45 -27.3522,29.469 -45.6092,68.4097 -71.17,96.88 -9.9935,39.9693 -34.8056,75.4419 -58.75,107.6 -65.4571,61.0219 -120.3779,133.5705 -177.62,201.32 -11.0368,53.7821 33.4491,107.8784 8.13,163.2 -7.5939,55.3883 -50.2784,99.2429 -72.21,150.17 -15.8369,8.8594 -28.4326,-32.163 -50.39,-32.07 -33.7567,-21.0654 -96.3514,18.9994 -101.72,-37.64 -27.0025,-75.2148 -106.5904,-115.2109 -168.81,-158.53 -57.4058,-33.4069 -158.319,-55.7395 -154.03,-139.13 1.4456,-60.9751 42.5777,-112.0696 59.61,-167.46 2.8269,-48.4453 2.6335,-96.4193 -16.41,-140.31 1.1907,-45.3503 -12.0854,-96.2201 -1.14,-140.84 0.9026,-37.8044 19.8123,-70.987 35.64,-104.18 -13.3497,-33.573 12.5309,-64.3188 13.18,-96.65 28.9869,-69.3369 64.0387,-131.9942 125.79,-177.72 -4.6355,-19.4079 4.0807,-36.2948 16.65,-53.05 -16.09,-12.7715 -5.8928,-17.5175 -6.28,-31.09 40.1125,-15.317 59.3071,-58.9397 86.74,-89.22 8.1809,-26.532 74.4485,-143.7526 33.26,-77.28 27.0516,-15.4277 43.9209,-59.6215 71.91,-65.97 24.8857,6.2759 38.134,-34.87741 62.08,-37.975 17.2125,-38.3963 76.545,-43.46237 113.76,-56.092 37.1749,-6.5214 76.7218,-4.46842 108.14,7.867 39.4628,-19.2846 75.2042,21.26759 116.49,15.871 24.4022,15.25725 88.3005,41.82487 64.77,35.125 19.9238,13.2149 57.2224,16.3313 70.01,41.574 34.9933,17.1627 9.8143,-40.05721 9.15,-55.76 22.7258,-20.18069 -17.2117,-60.82004 14.4,-85.138 30.4439,-12.66201 -15.5319,-38.825 15.77,-56.888 13.1859,-15.11012 -20.4566,-28.46331 -5.7,-50.936 24.2768,-43.13591 9.613,-105.5066 53.02,-143.193 11.774,-25.17878 32.7028,-34.96924 44.43,-59.714 27.8262,-6.46514 16.226,-46.99874 44.91,-59.395 32.7051,-28.86332 26.6111,-149.87441 33.38,-105.50163 -5.9332,-28.81048 18.2142,-91.98668 -24.55,-59.22637 -26.5064,-3.12207 -57.9539,-5.32989 -81.59,-16.78 12.1741,-34.03104 -43.2717,-12.41552 -56.24,-34.727 -27.6118,-10.59722 -59.9986,1.91665 -76.38,-30.674 -42.0999,-13.06029 -74.5562,-49.68466 -104.63,-80.264 -21.1731,-30.01359 24.5821,-53.04138 14.16,-77.419 -38.905,7.53978 -89.3745,-0.14298 -87.87,-48.2713 -60.9652,-5.70294 -116.0304,-54.002054 -136.39,-111.3416 14.4008,-25.704679 40.1015,-44.648685 26.44,-76.1631 2.0901,-24.33952 11.0165,-54.04331 34.03,-59.596 -6.4634,-24.15435 -11.1283,-55.37574 15.94,-68.512 m 416.95,559.889 c -9.337,-32.86466 -53.1395,-25.49394 -76.52,-36.862 -49.6824,7.8911 -89.4123,-33.78267 -130.4,-54.603 -38.9136,-22.9937 -55.8123,-70.3214 -33.34,-110.445 5.4955,-19.064461 0.043,-51.286243 -24.14,-30.5961 -41.5319,28.55614 -58.6557,-22.206239 -77.31,-49.916 -63.5148,14.567159 -94.2656,-74.799871 -77.5,-123.2697 -14.2908,-24.08103 -0.4476,-53.24018 20.91,-62.5912 20.993,-17.125 -14.4286,-37.55294 -0.36,-61.3 15.568,-4.85748 12.27,-21.00358 21.15,-30.306 m 437.64,2460.61 c -53.8253,-6.8149 -52.7943,-66.708 -35.26,-105.78 7.4934,-43.2698 51.2121,-66.3528 35.26,-112.8269 -0.6413,-181.9964 1.2818,-366.0781 -0.96,-546.7731 -53.8175,-14.7283 -96.436,-56.2232 -114,-107.62 -26.6063,-27.125 -33.2532,36.3187 -62.29,33.62 20.1674,30.9619 -43.8784,24.7525 -13.34,57.54 -27.4759,52.004 -45.6727,105.0289 -65.19,161.6 -39.7268,25.0664 -6.8929,83.9612 -41.53,116.7 -8.7214,25.8271 -24.5071,44.2129 -44.21,63.25 -4.4487,48.9862 -46.0319,80.6225 -63.41,124.05 -40.8092,69.7992 -84.286,136.7449 -144.29,192.05 -38.2907,45.8254 -96.724,83.2656 -112.32,141.92 3.8479,80.9185 15.1815,168.0993 -31.13,239.49 -6.8537,34.6887 -40.136,42.2218 -67.97,26.35 -38.4052,5.8456 -34.618,-45.4754 -53.98,-66.17 -67.4122,-100.8682 -182.0699,-151.8589 -271.84,-227.55 -54.869,-75.148 37.8879,-151.6399 15.08,-229.92 8.8964,-33.9145 -10.0178,-61.5399 -8.79,-94.24 -11.2928,-32.2688 -9.957,-68.565 -13.156,-103.4277 -11.2494,-31.866 26.2338,-50.8226 5.426,-80.5723 13.9102,-26.6444 30.7305,-52.8601 35.27,-80.79 -7.554,-33.0063 18.1039,-57.9124 16.52,-90.21 27.1383,-63.1257 62.0959,-115.3939 110.89,-163.27 16.4199,-20.0489 -0.2498,-49.4709 27.17,-62.74 -20.4248,-36.2436 17.9293,-61.9941 40.52,-83.74 29.6082,-32.2961 55.5362,-72.2399 71.39,-114.29 37.6982,-51.0134 101.3299,-69.0726 144.92,-109.718 52.6758,-29.1477 120.8903,-35.2368 175.26,-17.193 46.8037,-14.93277 91.351,15.79513 135.21,29.451 9.1052,24.0464 35.6413,7.8415 49.7,26.53 37.1368,5.4733 62.0719,33.2015 98.3,43.42 33.9625,31.3075 42.1334,-32.9127 23.73,-50.87 -19.6645,-26.22213 8.8373,-44.53911 13.36,-65.403 -22.8054,-22.05367 -11.3601,-53.5203 11.84,-68.766 -13.0606,-22.1434 -12.2692,-46.03926 11.41,-59.505 -8.7724,-23.87057 -19.657,-45.01312 0.71,-66.018 -5.9443,-30.74227 7.7392,-75.07186 38.19,-87.794 -3.1955,-41.19812 44.244,-22.89835 36.37,-63.618 21.6921,-21.38314 17.1767,-46.58144 47.14,-65.266 m -60.13,-282.924 c -19.1194,-7.42187 -43.7149,0.18376 -55.54,-17.078 -57.1169,14.61365 -110.0967,-27.4732 -151.11,-63.163 -15.171,-23.02916 -30.116,-59.72821 -10.06,-81.4371 -10.5593,-24.669255 -17.0068,-60.725152 -53.73,-50.4295 -36.4399,-4.432267 -41.783,-50.657362 -81.24,-52.76937 -33.1277,-36.939452 -41.348,-101.66969 -14.71,-141.78503 8.0594,-18.33077 14.484,-30.55756 0.26,-50.8 7.4604,-19.97819 12.3424,-38.42554 30.73,-52.124 m 395.53,1627.47 c -55.9708,-13.9884 -78.138,-74.9424 -109.97,-110.02 -30.8854,-6.9717 -37.8934,27.377 -61.64,36.47 -7.9496,24.4409 -27.301,37.3621 -47.12,38.43 -8.5553,16.5697 6.9146,35.0272 -18.32,46.83 7.9584,23.7995 2.571,48.735 -11.79,71.42 -22.099,49.8482 -38.754,104.057 -51.17,156.7 -3.0061,72.0932 -68.2562,116.8577 -83.38,184.34 -55.2141,78.1969 -91.1947,171.5888 -162.67,239.72 -49.4152,57.3975 -115.5456,102.8682 -148.29,171.68 -7.758,70.1822 9.2563,150.3045 -29.78,213.05 -15.2194,22.1286 -47.1475,18.1052 -51.28,-11.11 -44.5639,-83.2129 -132.8021,-128.312 -204.96,-181.11 -42.135,-36.8556 -74.3588,-94.1601 -54.6,-151.77 4.0662,-62.4804 -3.6583,-127.7322 -14.67,-187.24 -6.7536,-26.9967 -13.3765,-52.7326 -11.03,-81.92 -14.974,-69.9192 17.1256,-133.9307 38.81,-197.63 -3.5263,-32.3829 23.1298,-56.2018 20.74,-89.3 13.5874,-37.9349 43.8649,-62.9504 60.59,-95.65 30.2733,-41.1506 65.1311,-85.5949 80.68,-131.79 -11.783,-31.1724 -3.7909,-64.6811 27.01,-79.79 49.0501,-55.6729 69.1419,-139.6019 144.96,-167.84 47.5651,-21.439 84.4856,-61.05074 142.21,-58.014 38.0845,-6.16136 73.4577,5.4608 110.6,2.482 34.66,19.2598 84.4913,14.61 104.65,51.552 25.6415,-2.3203 41.4025,20.1039 68.61,23.01 36.0639,23.0324 81.1498,36.5872 118.63,60.99 14.7527,-13.4616 34.4504,-14.6742 23.98,-40.54 16.9524,-14.6643 -9.7299,-38.7501 5.69,-54.49 -29.7473,-25.0855 -6.458,-59.34029 -0.75,-87.133 -17.7353,-32.44172 21.7633,-57.92806 6,-91.739 28.2814,-22.41746 4.6783,-59.85878 20.6,-88.367 -8.0336,-42.65917 36.609,-59.05232 45.78,-93.749 33.7322,-6.44669 8.2471,-55.61758 41.88,-68.621 m -60.13,-374.476 c -27.5804,1.03097 -42.1972,-25.076 -70.89,-14.987 -53.5834,7.92674 -98.0119,-35.29816 -122.02,-77.693 -1.8182,-32.81418 -10.1413,-70.067043 -7.41,-98.8964 -37.3534,-15.075711 -78.0415,-20.190059 -103.12,-54.7771 -42.2589,-28.616251 -50.5122,-84.550865 -29.5,-127.4345 5.2788,-36.22162 -6.2686,-77.98464 29.85,-102.071 l 1.26,-3.119 0.56,-2.867 M -254.086,2603.85 c 14.56889,28.7576 47.83352,37.8093 77.99,32.51 15.74532,21.6956 -7.87677,69.6884 37.191,58.25 45.958187,-19.7269 21.96468,-88.3244 75.3553,-102.11 37.701197,-4.6867 1.670819,-54.5027 45.6479,-45.17 22.0596914,1.8015 18.87095727,-28.9241 41.4913,-16.83 27.309953,1.8544 9.30171,-36.669 18.4492,-35.5 14.212499,5.2717 19.231539,-39.2387 25.1992,-6.44 -0.0173,30.0489 30.98183,36.5877 43.5621,10.62 14.5436,-14.4779 23.21465,-37.2744 44.01,-20.56 18.6776,9.97 63.12353,5.2864 70.212,4.18 -23.32215,26.8874 -80.32953,12.5007 -72.151,61.65 -0.79531,29.3456 -37.5862,40.6403 -60.383,48.99 -6.378304,46.9751 -15.843773,90.371 -35.3694,134.56 M -254.086,2136.7 c 51.2543,-7.2404 121.98953,14.8576 156.8391,-30.3 20.576044,6.1777 18.854631,29.2624 40.7775,12.84 34.839565,-15.7221 89.444557,-9.557 104.0995,-51.72 24.905387,-20.869 43.337477,-54.2828 78.2049,-54.67 -9.42293,18.0628 -8.58804,32.0706 10.249,12.01 4.74511,3.9219 -34.09625,32.9878 -11.871,30.65 -14.05423,26.4926 -29.493418,52.5978 -42.4451,77.45 -28.069029,48.5459 -101.832261,43.6806 -113.5171,104.1 -29.158213,41.6488 -82.89616,57.6489 -103.4628,107.78 -34.72207,55.7823 -82.09826,103.2019 -118.874,156.95 M 381.938,2728 c 20.28454,-19.3446 14.51655,-20.6847 -7.281,-7.54 -14.93646,13.0579 -27.97529,7.6443 -31.906,-5.59 -26.55488,6.1158 -52.29446,22.3892 -83.52588,13.13 -49.97963,2.8824 -112.29652,-39.4463 -83.21112,-95.79 32.98052,-73.2979 104.83774,-113.9967 152.074,-174.31 8.90462,-45.2492 51.82445,-23.0201 79.318,-30.22 25.66777,-26.0465 35.04832,-81.0715 84.197,-67.62 12.96975,4.7604 59.34544,-16.2424 23.439,-13.33 -31.0785,-9.7703 -61.3392,-30.7964 -94.259,-8.24 -33.36141,21.8086 -72.94536,12.0731 -107.305,7.7 -23.05587,11.337 -50.36534,-0.5415 -71.092,19.67 -74.79831,10.3463 -156.178347,-17.8055 -228.8874,7.21 -36.509394,-24.1766 5.202319,-74.0477 9.1188,-106.7 47.422423,-65.038 133.4828,-86.1285 187.6306,-144.39 45.12364,-1.241 58.78245,-64.0824 104.689,-56.75 2.72118,-36.7849 -45.29506,-74.3793 -2.988,-105.03 29.94705,-29.0337 8.8705,-84.2047 46.427,-109.36 37.33457,-15.4777 23.67084,-63.1907 46.47,-89.38 11.88376,-7.8522 38.4911,-7.4924 11.661,-17.43 -23.01605,-6.6801 -26.83466,-27.2657 -21.294,-45.77 -0.47848,-10.9234 -18.12275,-41.7249 -18.182,-38.08 11.25493,21.3133 7.31972,33.4765 -15.549,26.69 -13.72409,23.9941 -48.44082,-26.2773 -42.509,19.4 1.15129,46.7189 -47.01288,16.6603 -22.288,4.99 -63.65262,14.3828 -61.92617,133.4585 -142.876,98.3 -27.74652,6.5944 -45.28923,-34.5308 -52.623,9.35 -22.139971,52.967 -98.4165777,69.9823 -128.2903,13.66 -34.681416,-16.5734 -67.83854,-48.6883 -81.7747,-82.22 6.15709,-21.2334 14.048847,-84.1767 30.6756,-66.9 12.919075,-53.796 -48.49445,-28.3838 -23.8946,-22.77 -24.74823,6.5969 -58.59237,-6.1294 -40.06,-37.62 -31.33231,1.3417 -68.83439,40.6743 -97.603,61.57 -4.75087,-3.3743 -9.54799,-6.6829 -14.325,-10.02 m 0,-784.028 c 6.8553,-61.34263 88.19037,-58.20788 99.384,-111.715 -43.00861,-70.74917 -13.51676,-181.93755 72.1287,-203.808 42.552048,-22.29591 61.00852,-70.96253 101.8986,-93.044 -30.615846,-34.20676 -5.037727,-81.23634 4.0427,-113.523 -38.609401,17.81375 -61.900525,53.20352 -88.153,84.297 -42.11159,-4.75306 -77.51818,7.2146 -119.522,10.762 -20.22194,15.24805 -45.9536,12.91812 -69.779,16.712 M 625.554,2728 c -22.29965,-25.6151 63.21471,-55.5465 12.515,-41.92 -31.54602,17.0681 -43.57446,-26.1667 -33.516,-42.69 -25.3299,-37.7611 11.9291,-77.3131 24.572,-106.85 -42.94324,-37.5189 -90.28962,47.8144 -130.425,-2.73 -50.18693,-35.9467 8.09347,-103.6149 45.201,-126.05 14.70645,-14.892 24.70365,-34.6959 47.872,-41.39 15.72177,-21.454 14.76385,-49.7971 49.476,-46.78 31.51626,-13.2145 52.73173,-32.3313 46.109,-69.69 1.71959,-18.3781 -4.17213,-60.3244 -2.709,-66.55 -9.4195,34.2598 -44.41535,76.979 -79.717,47.29 -27.12829,-0.9478 -63.53559,-11.0228 -79.958,19.39 -63.68649,20.4782 -137.64642,24.4127 -202.014,15.83 -10.8662,-25.601 -3.34103,22.0914 -21.983,-0.45 -25.21303,-2.972 -89.96735,-26.5428 -46.743,-54.04 38.87158,-54.7162 119.02703,-64.26 153.139,-121.61 -20.92086,-12.5524 -8.99725,-46.5463 -5.179,-67.36 -23.62052,-30.9907 -40.32809,-70.9923 -11.342,-104.69 24.05209,-47.9317 108.96823,-83.6616 140.57,-24.78 11.19448,16.4849 33.82768,10.8275 39.745,2.8 -29.36376,-10.2343 -10.92296,-52.6818 -28.466,-74.68 -2.80239,-26.8735 -14.62097,-55.0508 8.937,-74.55 -15.27222,-31.3125 3.07538,-77.9633 -45.491,-88.36 -50.85603,-29.283 4.54764,-91.5004 45.056,-67.38 18.59471,-6.9415 52.01618,-23.9869 57.083,-34.63 -44.04236,14.7874 -66.7182,-47.5037 -38.398,-77.12 7.14747,-12.4549 10.29517,-72.2612 -7.799,-31.44 -30.23338,36.9907 -76.55869,41.8227 -120.787,23.86 -45.87337,-17.0487 -97.01478,-26.268 -135.254,12.16 -40.85409,48.9536 -133.28364,97.1654 -182.473,35.79 -32.162875,-45.3521 22.86375,-98.1697 -14.452,-141.99 -5.97939,-26.8588 23.50781,-85.1093 17.474,-94.43 -8.50751,29.6435 -28.319238,80.0069 -53.4584,34.84 -20.006513,18.7441 -46.078992,45.9702 -69.12056,52.04 -26.234169,-51.7622 -92.726927,0.085 -132.18604,8.01 -54.48796,2.7851 -31.10187,-69.7742 -80.151,-70.6 -17.39616,-22.926 -23.04712,-10.1214 -45.767,-2.74 M 1001.8,2728 c -28.76353,-32.1033 -75.59163,-35.9834 -103.45,-67.51 -12.6903,-26.3166 -1.31717,-93.7396 -9.786,-80.4 -21.87089,-6.7893 -40.80091,-29.2296 -1.541,-32.41 10.12375,-5.5009 -10.30465,-24.3154 -8.537,-5.2 -39.36648,21.4675 -24.81315,-12.0774 -10.203,-23.23 -30.90676,-5.0362 -0.12327,-49.1758 -14.224,-69.6 -34.69167,-33.0632 -111.25526,-17.5463 -124.445,-67.68 -8.33037,-26.612 18.91034,-45.2179 0.283,-67.1 4.04723,-19.4133 39.77519,11.1034 28.729,-21.62 18.22084,-36.7289 -20.73907,-84.8726 17.741,-112.51 40.2698,-37.9123 92.81873,-63.2832 147.561,-62.03 22.60195,-8.0081 -29.11725,-3.1044 -35.653,-11.4 -56.57599,-13.3743 -124.17935,32.8725 -173.072,-7.25 -12.02778,-26.2049 -24.29966,-7.9566 -34.58,10.31 -13.19529,26.3002 -39.56962,76.3729 -74.643,50.99 -30.69434,-43.7543 -85.76236,-1.4262 -126.278,-11.58 16.05232,-50.8316 6.3452,-108.8695 6.45,-161.32 41.20657,-12.3298 98.60244,17.9434 134.073,-22.82 26.62785,-23.781 48.16291,-53.6145 63.54,-84.32 -39.54108,-10.598 -60.70488,-46.5387 -61.77,-85.95 -4.98097,-59.6867 8.62622,-131.0988 55.943,-172.47 43.89574,-22.9897 99.10912,-8.9633 147.438,-10.06 -42.63167,-38.4628 -105.639,-55.2714 -120.665,-118.18 -15.4032,-28.298 12.57942,-51.1451 1.991,-77.48 5.99038,-35.4281 -70.73866,-53.3475 -52.657,-99.87 5.32775,-15.0777 41.85647,-18.4651 8.011,-28.08 -12.3084,-12.9549 6.5664,-41.7848 -24.807,-37.57 -24.0721,32.511 -62.96743,46.7565 -88.047,78.25 -80.26165,42.2006 -180.67323,12.1092 -249.087,-45.87 -44.42554,-29.9855 -28.11052,-102.3841 -60.958,-139.09 -41.07153,-21.4989 5.65265,-76.7142 -0.502,-114.77 1.78964,-30.1633 -26.28078,9.1809 -32.055,10.28 6.62666,-33.0898 -1.23901,-71.75093 -8.375,-97.392 -27.27512,41.0579 -50.00145,88.4844 -84.82,121.902 6.63587,43.3547 -57.891796,25.7598 -83.4665,43.92 -68.663662,9.4215 -134.83387,63.9309 -203.6905,46.68 -35.82298,-26.4601 -88.43124,-53.5265 -59.946,-106.79 10.0462,-45.4234 44.9041,-79.11978 49.38,-126.313 27.07718,-52.37641 92.446766,-68.61827 118.3245,-118.363 25.539945,-22.77059 -9.00405,-90.85108 -17.6951,-61.992 C -95.84334,683.21542 -42.749501,631.91988 -0.0881434,597.781 28.723967,560.88575 81.497908,546.21098 113.412,521.456 c -3.5318,-43.55853 -42.121992,-88.97325 -7.388,-131.864 24.31171,-47.40697 62.53403,-83.46537 103.984,-117.283 15.507,-5.62848 34.7985,9.78886 42.813,13.093 0.032,-38.30806 -66.71381,-48.61957 -37.322,-89.792 -16.35737,-24.17818 -30.37777,45.07759 -53.966,45.358 -22.29073,8.53884 -48.77735,-2.81707 -70.9812,3.68 -29.35645,-3.06763 -1.554424,-54.65407 -31.3524,-42.542 -3.05056,36.52048 -50.9516224,24.55584 -58.18271,60.366 -21.85932,38.94083 -58.229807,69.28298 -97.03279,93.477 -45.20822,11.38421 -124.28761,47.2793 -139.7789,-20.146 -4.97954,-31.45176 -0.6094,-65.16061 -18.291,-93.478 M -123.947,-248 c 17.27591,66.72597 88.640562,75.27083 145.8039,67.989 62.579409,2.34266 120.31795,-18.688 176.2581,-42.321 -33.80892,29.84678 -71.30753,63.33427 -97.678,99.388 -18.231981,23.103739 4.90373,72.255194 -41.4257,53.4803 -30.260676,-10.032646 -55.1864659,12.133961 -73.9831,26.2461 -22.028334,-12.879815 -42.237731,18.711345 -66.7866,10.4663 -44.47955,19.706038 -83.56247,-27.918973 -122.1786,-28.5512 17.87994,52.6584585 62.65268,82.516155 112.5422,100.8239 -14.97916,44.327934 -4.9193,108.9591 -46.5702,141.0826 -6.81754,24.51584 -30.95195,100.26993 18.733,90.253 48.607335,-25.29084 79.002041,-75.78392 119.662711,-111.891 14.966887,-21.46393 34.083267,-77.85939 60.085689,-32.539 17.160817,19.79647 37.455292,5.94674 49.6436,32.874 54.19576,26.46893 96.42173,-39.34227 122.826,-77.9656 13.9096,-28.307507 46.41272,-15.870501 63.248,-35.9907 9.795,14.23874 38.37222,11.726208 9.5,27.5654 -20.08408,46.76895 -6.15606,100.45628 -9.845,149.5249 13.62605,24.10571 27.46457,55.30067 58.431,49.544 22.259,7.58882 36.01655,24.64403 13.671,41.529 -12.75487,33.28832 -40.99057,67.39122 -72.964,80.992 -10.90286,-39.35846 -73.79932,-66.62239 -89.003,-16.846 0.7617,21.14227 -56.79178,42.7361 -19.497,61.198 24.03914,-9.26286 49.90958,-18.47752 64.778,6.036 29.2239,3.2934 -5.79385,42.87764 10.438,63.031 4.78316,19.30636 27.38202,46.98206 -10.658,40.575 -30.99887,22.32798 -48.06668,73.48038 -80.365,92.708 -51.1926,-51.23251 -122.992693,-12.12002 -154.5454,40.544 -27.68587,26.9639 -16.48781597,59.71748 1.9665,86.533 24.087455,38.18936 8.918243,79.53049 0.7085,120.466 37.153836,64.58729 100.72429,-10.69914 145.8934,-28.678 64.48684,-38.79595 131.5082,-80.63618 196.253,-113.692 24.01861,10.4928 29.72073,-18.69546 50.051,-2.332 43.40346,-16.34321 21.09121,29.19729 42.215,40.821 8.37114,-28.20651 17.25479,29.83815 38.523,7.383 -28.1529,19.2213 -56.85473,63.23274 -102.075,58.35 -11.91381,49.83526 9.29374,96.01066 5.991,146.697 7.36955,41.8038 -15.52892,80.2723 -16.089,122.716 -19.13998,84.3898 81.10168,166.681 156.464,114.69 42.53015,-22.8236 82.54002,-61.8836 128.291,-67.88 25.73647,20.7239 51.16987,41.8454 85.44,44.01 14.70208,21.1927 12.79541,53.0482 46.603,55.96 13.73764,17.6868 -22.32121,9.8252 -12.94,36.62 -10.99689,41.5751 21.77785,77.8882 9.346,120.6 4.10646,40.2306 -6.98679,90.2092 40.018,106.52 30.15929,8.272 76.68561,41.0827 94.449,-3.25 27.72666,-25.9717 24.92226,8.1077 21.711,30.18 1.50061,33.1243 32.4612,72.0255 23.416,98.21 -65.00133,-30.6467 -132.01252,16.5472 -200.241,3.22 -54.2514,8.111 -96.21149,59.7948 -83.949,115.05 -7.17996,53.0772 70.87904,26.9014 90.171,56.56 -28.23168,61.1734 -89.28472,136.2326 -33.029,199.91 34.30574,44.6786 104.02259,25.7655 152.462,24.36 69.62903,-6.2803 89.08144,-79.9417 119.626,-129.41 -0.2663,-19.8991 11.8609,-45.7669 27.58,-50.56 -27.7132,27.2296 19.3193,43.1509 11.38,74.07 -6.1623,23.8673 15.7453,35.6892 -0.76,53.06 -2.3424,24.4787 31.7986,54.2233 22.74,70.71 -31.7814,3.4595 -47.4989,47.6282 -82.092,46.88 -42.24913,17.9905 -59.07733,76.6854 -111.879,71.44 -53.24128,28.9848 -11.21216,110.032 40.406,113.49 53.08139,21.4088 94.9223,57.2896 134.545,96.31 19.2665,4.9687 31.8491,42.9384 42.41,9.34 28.1367,-23.2766 3.5502,1.9668 -1.18,17.16 29.8009,-3.6777 -13.5421,12.9031 11.45,19.73 34.0438,18.1225 33.089,70.7707 73.11,87.08 31.4465,27.5502 68.2803,15.432 80,-21.19 27.0273,-27.5907 -29.4983,39.5174 10.24,13.44 31.4251,-15.7169 0.1628,17.0848 -1.27,25.77 33.5293,-12.4415 44.1378,45.064 75.08,17.18 41.3874,-0.9554 -28.6983,41.0689 -36.22,56.75 -15.9208,34.0405 -34.6268,66.7679 -48.01,101.98 m 39.44,0 c 22.095,-52.1008 49.1844,-101.2626 95.52,-135.71 28.2608,-32.875 56.7,-66.1886 99.89,-80.25 -16.3869,-23.0739 -67.6551,-31.8465 -65.18,-72.13 -14.656,-25.8594 8.8925,-59.4098 -4.17,-80.96 -11.1699,10.4895 -9.8154,60.8849 -12.12,50.21 -1.4152,-34.6745 25.9284,-94.5937 -23.69,-102.14 29.2551,-52.2545 -15.8857,0.6423 -43.08,-41.49 -15.5602,-15.2331 -36.1578,-13.0053 -50.17,-12.27 -2.7022,-26.4235 23.1282,-60.1854 -19.83,-44.05 18.5431,-42.6354 -18.2878,-16.9303 -36.44,-1.54 -52.9313,19.4006 -117.1886,69.1699 -165.33,12.82 -26.5113,-43.3629 45.3091,-71.9597 64.54,-105.89 29.7406,-28.7967 42.5707,-91.5683 0.5,-116.52 3.3588,-42.0263 -30.9336,-66.0513 -46.66,-102.21 11.4061,-38.8785 53.9918,-40.2039 81.03,-57.78 24.8489,-30.5828 78.3475,-46.9356 89.46,-78.56 -30.2149,9.4991 2.9287,-13.6343 -24.82,-10.02 -67.7305,0.7494 -130.5357,32.1241 -197.41,36.73 -57.51569,16.955 -70.81234,74.1644 -89.083,123.53 -18.55023,58.5085 -79.43764,107.5089 -140.641,76.93 -44.9603,-33.3238 0.70674,-96.592 23.661,-130.22 16.66272,-31.5408 -8.34041,-75.3233 -28.186,-100.15 24.18326,-60.0663 116.87426,-67.5026 160.441,-23.29 38.3436,11.317 73.0525,-7.683 77.398,-48.99 -7.6849,-57.3376 -54.9551,-111.2615 -42.6371,-174.7853 -0.068,-35.5467 13.8434,-76.9802 0.6971,-105.2847 -26.11642,36.5271 -101.65038,92.9928 -131.001,30.62 -28.00501,-64.8309 -30.39021,-137.2653 -9.357,-203.78 13.15218,-45.0396 -38.79621,4.6741 -53.747,-27.91 -25.32241,-24.5519 -28.63706,-76.5147 -76.08,-61.73 -45.5862,-0.5109 -82.14999,-48.0288 -130.923,-23.03 -43.39928,11.1975 -105.34818,59.1418 -137.754,5.05 -9.40064,-38.3905 25.5433,-69.357 5.855,-105.48 -11.90929,-82.66224 18.32114,-162.12658 77.402,-219.801 21.88529,-19.82811 41.0332,-59.97769 71.655,-61.722 29.89771,8.38537 67.18695,-8.11258 87.218,-22.689 4.86091,-7.42792 46.43818,0.14122 10.626,-12.131 -28.18844,-13.07146 -74.74604,-20.37585 -54.355,-62.142 5.39512,-30.38527 58.72337,-49.18056 34.109,-83.337 -49.6101,6.7737 -99.43778,20.3466 -148,28.094 -32.44711,-16.98894 -75.74339,-3.25317 -105.213,-19.202 -5.74906,-25.4945 -27.32382,-38.62845 -30.331,-64.429 -18.25034,-40.8153 -7.79223,-90.25701 -4.764,-134.482 20.13953,-34.55234 24.1804,-77.394 -0.27,-110.606 -18.89033,-26.6007 -67.00235,-23.00437 -66.298,-66.485 -14.38135,-68.10864 29.20351,-134.41924 72.358,-177.6943 18.51036,-24.14711 -35.97825,-20.4460679 -48.138,-36.7933 -30.44555,-1.416423 -53.49935,-45.272584 -35.819,-72.9847 18.92045,-35.15037 38.42639,-76.86902 73.241,-97.3177 36.89626,10.25878 50.76138,-52.38487 39.487,-30.584 5.38287,-6.84291 9.3566,-14.72334 14.893,-21.414 m 884.306,2976 c 18.2668,-35.9891 26.113,-76.2893 66.64,-97.37 31.6274,-30.0964 53.1191,-69.7893 99.22,-81.97 64.7836,-31.0564 122.4326,22.7581 180.51,43.5 55.2933,19.9091 114.144,49.1938 169.08,60 -37.5039,-78.0025 -38.7992,-174.5226 6.73,-248.89 -12.0813,-37.1299 56.5191,-30.642 34.27,-62.74 25.6261,-30.9492 20.31,-79.1171 20.41,-112.2 -26.4999,-3.4143 -52.2147,-0.3076 -50.7,36.07 -19.6663,47.4995 -81.2927,48.2322 -110.72,89.5 -64.5827,44.2114 -145.2267,53.0857 -217.3,79.35 -74.9489,-1.8421 -71.0066,-105.5393 -38.62,-152.64 1.0471,-33.5739 8.1672,-65.7924 7.8,-97.91 8.7758,-41.7214 18.9782,-81.2034 17.4,-123.65 -13.3665,-6.5789 1.3038,-49.8571 -19.17,-17.64 -13.136,0.2575 -37.7671,-7.4901 -28.67,-26 -4.8904,-28.3428 -47.0021,-55.4424 -31.56,-43.19 -16.866,-1.2149 -91.0037,-10.3267 -67.55,9.07 -51.8854,1.2311 -62.5125,-55.0055 -103.24,-75.11 -17.3753,-44.5058 37.7402,-70.058 62.73,-90.94 12.2232,-19.3637 19.9171,-25.8621 18.64,-50.16 6.0849,-48.0415 24.1139,-96.5201 38.83,-140.49 25.5432,-8.8306 23.5585,-31.489 -3.7,-36.53 -26.2211,-18.7233 -67.5776,34.4624 -73.28,-16.3 -4.4105,-17.5493 12.1972,-48.1165 -17.69,-23.77 -12.4009,14.1931 -36.219,10.4704 -19.92,35.03 -36.0892,27.6212 -24.3693,100.1648 -86.49,92.85 -45.122,11.8592 -83.8904,-9.0676 -100.25,-52.41 -60.3981,-64.6745 -44.1122,-159.0839 -45.15,-239.14 5.9616,-23.3467 32.2681,-65.9794 -13.94,-47.52 -36.7792,16.8227 -97.25995,80.8086 -128.585,24.32 -36.56623,-63.5036 37.0969,-134.8087 -6.626,-194.8 -41.01725,3.9216 -77.49966,-18.5673 -83.92,-60.72 -41.42997,-27.5188 -100.29219,-23.0032 -145.65,-48.23 -44.47601,-22.309 -117.85532,15.0824 -134.114,-48.89 -42.31887,-95.56713 43.99975,-189.41705 121.975,-232.622 64.59591,-18.26418 138.13811,-40.95028 201.89,-7.134 23.64811,-2.54791 72.12905,29.77766 75.428,26.496 -12.85878,-14.76765 12.17891,-31.71225 -14.655,-41.259 -51.14948,-21.18558 -81.42524,-78.884 -135.707,-92.892 -49.39537,-62.15107 24.09634,-118.74327 64.233,-158.878 28.52754,-50.02382 71.02856,-88.64273 104.209,-134.081 -6.24456,-18.34263 -16.40757,-47.59728 -23.827,-59.152 -12.66291,22.36372 -10.79177,53.47742 -44.956,52.245 -26.50717,20.35832 -62.0798,18.39007 -81.936,49.689 -55.44447,47.17258 -129.3393,77.65997 -201.599,84.812 -33.85159,-13.84872 -71.27555,-1.47117 -99.634,-29.622 -41.71262,-23.26845 -15.58661,-86.68114 -19.834,-126.453 0.23507,-61.8865 -6.99858,-130.78079 -34.807,-185.288 -23.66748,5.69906 -58.75125,4.54926 -41.285,-29.498 5.97081,-17.94264 23.93434,-48.682556 42.77,-37.784 32.14597,-34.273925 69.66174,-89.7663032 39.435,-132.2611 -51.58296,-11.602549 -46.63115,-72.13871 -6.937,-94.5439 7.55218,-52.9023 67.0092,-62.50009 86.469,-108.254 m 818.853,2976 c 25.89,-31.8464 73.5226,-43.0627 78.84,-89.33 21.2316,-0.2368 41.4942,-9.8017 55.26,-29.06 51.0108,-3.9945 106.4908,-13.77 155.06,14.34 64.6062,21.2414 126.2577,53.5104 191.09,71.51 36.4888,-2.4762 65.8305,-50.2096 31,-76.96 -56.1574,-73.5309 -28.0675,-186.9352 53.28,-227.83 43.8019,10.8303 10.4085,-28.2541 3.08,-46.97 0.7046,-47.1677 9.4598,-92.989 19.52,-139.54 14.9032,-12.3077 6.6648,-35.1551 22.57,-47.6 -2.9723,-17.4246 21.6311,-30.447 2.34,-42.49 7.0971,-22.0915 15.8079,-34.6897 27.41,-52.32 -17.2032,-6.5753 -13.6136,-44.542 -26.44,-42.12 -15.7252,38.704 -61.9841,41.5726 -93.65,62.27 -24.0986,-3.1385 -44.3737,-0.049 -59.49,22.57 -37.3212,31.0515 13.9753,77.5484 -16.61,114.28 -25.5396,57.2754 -92.2108,86.748 -147.6,108.65 -40.4277,9.9058 -88.09,15.6951 -123.66,4.05 6.3455,-44.7268 36.923,-93.0109 10.04,-138.39 21.1106,-46.669 0.7909,-108.0747 47.58,-142.65 26.9962,-46.6248 32.826,-113.9016 85.96,-139.48 0.7479,-13.6123 23.1761,-28.4981 0.29,-29.44 28.2774,-46.6549 -23.4444,-57.6859 -24.56,-38.31 9.2648,-28.986 -57.7639,-7.172 -38.34,-47.47 16.9862,-29.6705 -5.98,-19.4536 -24.92,-17.95 -53.5992,16.2243 -115.1853,29.0937 -170,14.48 -32.9933,-52.2111 15.3932,-112.9552 45.11,-155.24 45.8941,-3.6511 51.4943,-56.8335 50.95,-88.85 -31.2381,3.6314 -47.2858,-16.1357 -44.92,-45.64 -21.7794,-19.3817 -36.5834,21.2467 -58.28,-7.37 -25.5833,-2.2315 -76.69,-19.5271 -47.77,-52.73 -11.2845,-14.4416 -12.723,-27.909 -2.73,-43.91 -27.2322,5.4461 -24.3533,45.9239 -58.43,40.38 -29.4633,51.5341 -110.4324,45.0075 -128,109.76 2.8556,36.2641 -30.7274,64.9863 -60.7,37.39 -58.8334,-47.2615 -44.5838,-133.1753 -48.39,-200.55 -2.5604,-35.8471 47.0065,-53.7849 50.15,-82.33 -38.2483,13.8115 -70.4253,-30.5358 -107.73,-5.75 -29.7758,15.8037 -96.73325,27.4553 -79.19,-29.03 4.8506,-46.7484 9.06219,-104.7662 -11.558,-146.29 -29.68641,-8.2898 -60.31389,-15.7007 -57.43,-53.99 -2.19435,-58.6747 -70.3328,-18.9546 -101.225,-51.11 -56.7493,-28.0671 -122.03779,-34.83632 -183.313,-42.455 -54.89526,-46.07824 20.25341,-100.56414 49.675,-137.1 69.58983,-66.92953 182.00332,-39.48781 255.643,4.465 22.53771,27.63822 49.87447,70.71014 88.308,44.89 31.0355,-4.22618 70.2372,8.37896 88.72,23.89 -5.094,-45.90582 -43.1529,-79.27571 -43.92,-126.417 -21.2562,-35.3977 29.957,-63.15374 -0.31,-97.609 -9.9951,-10.8509 9.7842,-45.52195 -2.07,-48.977 -28.2538,5.9036 -37.8973,32.36418 -55.772,52.214 -59.39677,31.64442 -131.35996,-17.28199 -152.62,-72.515 15.84457,-88.89951 110.61748,-130.1804 137.938,-214.387 33.9879,-37.5495 62.3184,-88.08955 105.224,-113.031 27.4817,-4.0426 10.5459,-43.41639 38.37,-56.033 10.6404,-22.36159 62.4383,-46.95434 61.88,-63.34 -35.4902,10.654 20.9075,-60.76342 -20.12,-34.98 -52.1962,13.45693 -100.4012,37.451 -148.59,59.146 -14.11911,4.21829 -47.27345,43.83525 -42.526,25.634 -27.62268,27.42538 -55.45092,74.26897 -100.968,61.002 C 812.35329,363.29251 714.80716,405.6298 622.032,423.729 577.75048,421.47209 533.24863,392.93791 550.427,342.031 533.73911,238.38774 530.07468,132.79178 559.82082,30.916588 572.9985,-12.455217 545.9753,-58.283598 551.161,-99.5088 580.3659,-153.81844 638.893,-191.08674 663.267,-248 m 74.444,0 c -32.30169,51.57432 -67.46039,104.76423 -102.615,152.2158 -14.87169,70.019957 -10.05252,142.946929 -31.62,211.7772 15.19284,77.09074 -37.68984,187.66141 48.333,233.721 85.70927,2.02431 134.66234,-83.11769 195.885,-124.599 59.82692,14.68818 90.54593,-42.61096 124.649,-76.994 59.6541,17.13358 100.5057,-51.93802 158.327,-53.0623 20.0956,-12.076496 42.6009,-18.538731 57.9,-33.8375 18.7957,-7.596414 29.2325,-14.983438 51.59,-9.3355 38.5135,-3.962995 61.9337,-40.303308 100.81,-38.3732 40.9868,-8.1796234 86.395,-14.9168766 128.31,-13.51599565 C 1430.2801,2.9747596 1434.6023,50.73438 1395.85,56.0636 c -25.5245,15.965374 -54.2002,26.519633 -71.92,51.3494 -51.343,33.54149 -100.5455,75.93184 -144.99,119.282 -22.5442,30.34792 -26.8658,69.53984 -25.91,101.867 -75.7833,8.91249 -144.2825,70.57188 -166.115,143.812 -21.39932,53.98858 -112.90871,87.48415 -85.875,153.492 41.81218,45.62097 79.14123,-34.62031 122.67,-40.052 30.5335,-34.4016 105.8958,-29.65023 113.74,14.956 -17.673,25.21632 -37.3831,51.23345 -32.96,86.342 4.1592,59.80996 -0.1816,123.2204 38.33,173.109 13.2885,52.58891 98.7934,25.22279 104.72,71.892 -33.9671,11.3912 -79.8511,44.38525 -125.31,34.84 -54.6738,-8.40685 -143.1358,-12.68441 -155.437,55.167 17.23098,48.4272 56.786,88.12 46.197,144.44 -2.735,36.3379 0.594,86.8536 51.38,78.86 41.0025,13.352 81.7473,0.4479 119.39,13.82 42.2087,-1.2741 -1.1232,53.6184 -11.37,71.07 -22.9315,40.0135 -42.2229,106.841 -8.04,142.28 50.4217,-27.1055 103.8185,-55.5716 156.11,-82.59 19.1888,-35.3846 68.6631,-28.0667 90.45,-64.61 31.8225,-2.5707 8.3256,55.7991 36.59,67.28 17.2066,28.0945 54.0589,43.4879 79.73,25.38 -9.6455,30.7878 32.5979,27.3676 33.63,58.58 21.0596,5.2469 45.4507,4.1414 44.13,35.43 13.9515,49.401 -11.1255,101.8638 -4,148.3 66.3936,7.6209 138.5331,-2.9589 197.45,-32.58 18.7874,-0.2941 66.3109,-3.8294 70.55,9.15 -10.1591,10.9253 -1.6346,32.4335 2.92,46.97 29.7349,6.445 49.37,36.0584 21.46,60.12 -33.5807,47.4867 -35.6055,115.8727 -62.47,162.99 -47.0402,4.9815 -73.5246,62.1698 -103.53,95.33 -28.4924,52.5611 -77.9495,96.9766 -73.94,161.37 -20.2771,46.8637 41.4819,100.3089 85.13,66.69 45.4713,-13.4935 50.715,-61.5819 37.84,-99.7 0.2622,-59.0534 46.7266,-119.7563 102.58,-131.97 78.0884,1.222 135.8706,-66.773 179.06,-124.28 15.9871,15.2498 53.2782,-22.5666 40.52,10.16 -6.5015,15.0294 -19.3302,30.7919 -7.62,42.92 -24.5908,19.965 -5.2419,68.7138 22.54,65.54 -14.3147,27.3483 -29.7072,62.4502 -18.37,89.59 -40.6221,6.6652 -14.0625,51.3015 -44.03,68.56 -24.1429,72.3177 -69.9914,153.1997 -31.01,230.54 20.4272,25.0108 14.2026,44.7151 -19.88,42.23 -47.6796,17.1668 -94.0368,61.505 -78.73,116.19 -2.5489,40.9041 42.6902,65.9145 49.28,99.9 -8.9745,74.034 -98.6796,105.3794 -158.28,66.68 -88.2654,-24.1002 -189.3261,-100.5742 -277.62,-33.61 -27.5007,13.6082 -46.868,38.2692 -72.08,54.85 M 807.385,-248 c -62.4361,87.81518 -134.94731,177.408123 -136.152,291.1344 -13.71174,64.48656 -5.32595,131.08472 3.994,194.8886 38.41509,44.33778 77.95127,-31.4252 111.268,-49.383 41.34054,-34.29289 109.14001,-8.27242 142.449,-59.038 45.69718,-34.546845 109.7544,-26.50268 155.646,-63.8484 40.8692,-13.179888 77.5009,-44.109331 110.88,-63.99762 56.7888,14.599964 99.6031,-39.489555 153.15,-47.94668 24.3108,-11.510868 52.7376,-10.08792 68.43,-32.4085 25.8682,20.11651 64.1629,21.585968 90.96,10.8297 23.2007,38.181499 66.8052,12.568955 74.09,-21.7654 12.4401,31.650361 26.7672,64.365354 67.35,61.8289 36.492,11.878473 95.9814,-16.056539 116.18,18.45554 -42.5542,-30.124245 -70.7463,26.076012 -110.64,34.02876 -81.79,5.409929 -160.9219,34.377422 -234.82,68.0437 -30.9091,23.19573 -63.0896,48.59179 -91.35,71.458 -65.3757,30.52263 -131.5196,95.03427 -124.55,173.178 -11.3009,23.29353 -11.6309,51.09703 -48.66,38.555 -35.1739,28.10162 -100.8374,20.92257 -103.46,79.281 -16.8884,36.15284 10.9721,64.83691 48.46,59.101 34.498,5.15469 82.8581,11.71858 91.69,50.69 14.7372,9.39394 24.8539,9.89453 12.85,26.298 -4.9209,19.89888 1.0985,33.91422 -20.55,47.569 -27.2208,59.99239 -26.9391,129.28689 17.63,181.462 16.9992,43.99201 75.8051,32.41397 95.76,68.168 32.3928,12.96037 72.6928,25.84432 95.59,50.308 -26.3586,-8.54855 -57.3022,11.9445 -69.3,33.834 -35.9779,14.07025 -73.2675,5.33067 -103.54,32.666 -50.1838,18.6426 -145.2476,-14.28143 -158.69,58.27 26.0586,40.0305 -20.1873,113.1345 41.45,126.91 40.1311,16.4546 71.1392,-8.9051 97.45,28.68 70.7992,18.0242 20.8288,106.4742 12.91,148.69 57.8945,10.162 91.614,-63.5197 150.21,-66.53 21.7012,-14.2377 46.5275,-27.2839 62.07,-41.65 17.2079,12.7116 17.9613,35.9147 36.72,49.22 13.476,31.2407 52.1945,62.3328 84.58,44.45 9.0851,22.597 33.61,20.5799 33.86,46.2 29.5898,-5.3524 23.6255,26.6762 44.58,34.76 39.8187,30.945 21.8869,89.8095 40.56,132.34 47.9166,28.7327 96.3835,-28.9732 144.73,-35.46 43.3738,-3.5283 77.8181,-21.091 117.89,-33.04 39.6755,-31.2595 102.683,-36.9554 130.67,-78.78 5.9455,16.2158 -37.5276,52.9061 -4.35,29.66 3.1723,19.6949 32.1398,69.7822 19.35,54.27 -17.7144,51.0004 -35.3216,101.055 -52.61,153.4 -40.695,71.0773 -63.4859,154.5883 -78.93,232.55 80.835,-29.9544 143.2838,-95.3491 214.43,-140.33 14.0699,12.637 24.5096,36.6411 12.34,55.81 -8.0534,28.5042 6.6788,36.9596 26.34,53.71 -15.7462,22.1048 -28.7331,45.8006 -21.88,77.31 10.7299,21.8059 6.2,33.5813 -2.2,56.44 -20.2585,32.203 -22.1707,73.1832 -22.43,106.38 -52.6483,50.6573 -85.1423,126.2688 -101.27,198.43 -3.1699,54.8196 33.0136,106.3465 39.89,155.33 -38.6134,4.7799 -93.3888,-3.3065 -113.53,44.13 -43.5951,53.8762 46.4916,89.3036 46.83,135.9 -22.8287,45.8159 -46.4937,116.0295 -111.6169,95.56 -79.195,0.7019 -160.3516,9.6177 -230.8731,-34.11 -58.1168,-29.047 -105.2626,5.1251 -154.21,34.11 M 866.658,-248 c -66.07537,100.5589 -159.54654,204.627983 -136.476,335.0233 30.0988,43.52791 93.5201,6.144774 137.76,10.2754 51.9736,-20.054227 104.96571,-42.290022 160.858,-54.4355 54.6395,-16.726512 104.5639,-51.1129293 150.68,-79.0777 52.0102,-2.322329 94.8653,-29.213919 138.18,-52.4353 16.2199,-21.04074 49.8822,-4.572195 68.29,-27.8342 23.3057,-3.44606 39.2944,-21.63332 64.5,-7.495 32.5039,0.89743 63.112,-17.75486 93.3,-7.834 24.8339,-7.69746 18.1405,-85.85579 44.39,-38.706 30.1868,30.81444 37.1403,107.895502 96.59,95.8219 26.3664,-35.44679 22.8949,17.557889 49.78,13.0803 29.6567,-4.074052 98.1477,25.009495 72.96,19.6622 12.3443,33.9025588 53.4045,22.129558 63.64,59.2685 17.0202,18.793385 37.1618,37.453819 52.39,54.8113 23.166,9.922084 69.9962,0.921093 70.61,38.6498 -17.6662,-14.041299 -34.31,-13.038741 -51.68,-1.258 -38.4073,13.45427 -60.0456,-28.373812 -94.88,-28.8241 -45.5762,-16.830047 -86.3392,-73.0066769 -138.84,-40.9755 -76.5717,42.263766 -170.5286,44.181771 -244.48,91.9076 -44.8623,14.57214 -79.6082,49.55917 -118.48,71.076 -37.2624,12.16163 -69.9357,46.82703 -90.19,79.222 -5.9137,48.27886 -3.7445,111.76669 -53,139.201 -44.508,42.14186 38.304,65.05137 42.17,102.754 9.4492,18.44894 35.7303,26.18897 18.57,52.445 -16.4622,24.01013 6.2775,58.96198 -22.6,75.017 -58.6523,60.25017 -6.6342,161.18176 67.43,177.237 21.0488,15.79884 44.3293,31.43673 62.79,48.558 29.6343,19.38385 51.2779,54.80103 92.03,56.014 27.9628,-0.20177 43.9476,17.33262 9.85,31.502 -28.2171,19.06625 -61.501,4.76392 -89.58,8.692 -23.5947,26.58075 -49.2206,41.8597 -83.75,49.867 -44.9715,32.4043 -103.6304,41.8036 -150.12,61.89 1.0789,30.3265 11.9639,55.7205 47.42,54.5 30.7907,36.702 74.9643,68.8134 86.34,119.67 60.8299,15.1402 117.2808,-43.1284 166.51,-55.17 -1.1836,25.0357 36.9451,19.0469 30.51,49.15 22.5592,26.0672 50.2305,59.396 87.3,47.98 3.5576,32.4712 47.5229,20.7766 50.37,56.92 26.5667,22.7087 42.3152,60.6203 71.8,81.62 7.0791,47.5759 59.691,61.9293 97.99,36.67 54.7404,-1.5072 108.743,-10.1584 155.86,-38.83 58.558,-16.3106 93.493,-66.5097 131.41,-108.12 46.2857,-18.7813 59.1925,-77.7085 93.06,-109.31 5.0566,13.4892 -0.4049,32.361 15.9,22.25 7.2413,24.3444 31.4807,-16.5391 18.27,14.67 -17.9079,79.8725 -43.1367,158.4646 -73.63,234.24 24.6491,73.0137 -40.245,132.8001 -45.56,203.1 19.4503,33.6067 61.4983,-23.7103 92.74,-20.78 24.065,-17.9097 34.6378,-0.4901 36.78,23.09 -0.4601,34.9039 35.6411,63.3911 24.55,102.28 8.0424,45.5988 26.3831,78.3173 27.55,69.38 -24.8786,31.9704 -14.7676,74.2919 -23.52,110.16 -21.4039,23.6138 -24.6452,58.3227 -37.7,87.1 -0.4148,36.5576 -10.8631,60.1118 -40.62,80.46 -17.6585,34.2151 -50.2171,59.5453 -57.02,100.56 -32.1928,73.8502 14.6803,152.4503 35.87,218.28 -34.6941,36.4278 -106.241,14.4815 -128.55,65.15 6.9323,39.2783 81.1039,38.8837 58.18,88.18 -5.9865,43.0493 -41.9978,72.1423 -60.56,109.7 -127.7055,0.5 -257.3691,-0.6832 -383.95,0 m 1031.59,0 c -13.1422,-10.3708 2.4073,-44.9887 -27.58,-30.38 -23.1397,15.9529 -46.9173,2.9554 -70.42,-3.1 37.6644,-40.2508 -303.8024,55.1403 -64.59,-15.84 -73.9259,-16.6688 -158.0958,-15.818 -231.55,-45.21 -53.2629,-18.0228 -94.5639,-55.3781 -139.41,-85.62 12.1986,-36.9729 70.6871,-56.9763 53.16,-104.52 -9.9419,-37.5408 -33.2547,-69.8285 -32.11,-111.32 -25.1953,-69.1165 26.0804,-139.4641 73.6,-182.38 29.2394,-13.2255 42.569,-93.9046 28.2,-68.39 18.7211,-29.7458 22.6381,-71.0559 50.62,-90.89 14.3591,-26.0303 2.6472,-61.8921 23.43,-89.62 28.3259,-26.0809 -0.771,-49.088 -19.1,-70.17 -24.8238,-37.9107 -8.4291,-88.6769 -24.29,-125.19 -12.526,-22.6268 9.6156,-62.4966 -10.93,-77.19 -42.9282,6.4902 -87.4562,-21.1057 -78.61,-69.12 -25.4125,-128.3588 46.2597,-248.2324 47.21,-374.2 13.1491,-54.6598 -25.0751,-122.525 20.93,-169.88 32.7391,-25.56254 -32.8026,8.3407 -22.62,-19.816 -21.0808,-9.43558 -32.9454,-24.28669 -21.29,-44.181 -37.6647,49.2433 -84.0473,110.9154 -54.3,175.097 -12.677,48.7144 -48.2732,88.0385 -64.48,135.22 -61.2344,57.317 -107.1709,135.789 -194.71,156.26 -55.5199,16.3271 -127.9408,32.0129 -179.07,-2.19 -42.9766,-32.4629 -74.0856,-83.2089 -104.15,-128.23 -18.8367,-24.1197 -49.3846,-36.5934 -81.55,-38.99 -31.1839,-21.3257 -32.5174,-67.2846 -65.27,-83.85 -59.5762,-7.3335 -127.3851,78.7866 -176.23,14.79 -36.8711,-29.8072 -28.1299,-83.1295 13.03,-102.45 33.9331,-16.7281 70.7343,-25.0372 92.67,-58.14 39.0466,-24.971 100.124,-22.56945 127.72,-63.239 3.3822,-15.12193 19.2285,-22.72158 24.33,-38.561 3.9809,-13.98999 42.2748,-45.4762 8.18,-34.51 -45.181,3.35455 -95.7962,21.2031 -135.31,-13.369 -32.3084,-18.34978 -55.5234,-51.54376 -84.56,-70.157 -29.382,-24.56355 -83.986,-36.2219 -91.35,-78.072 9.0026,-37.81772 59.2517,-52.36175 53.15,-96.531 -6.7906,-36.79626 26.5005,-80.25931 9.74,-112.245 -23.6058,-20.30957 -50.6344,-54.72803 -48.87,-90.143 39.1532,-37.68692 17.4619,-93.08933 36.64,-138.408 56.9458,-53.53544 130.0795,-88.49039 201.12,-120.694 79.8153,-22.78109 155.8442,-55.97555 231.41,-90.0743 57.2055,-10.992006 92.7694,50.67004 149.13,48.5793 31.6148,34.87241 84.6408,20.89013 122.41,37.134 14.9101,-24.24924 47.45,1.97717 55.73,15.845 15.1737,-40.93876 45.5076,-83.814576 75.14,-109.4349 24.4997,18.987895 10.8372,-7.362404 22.36,-18.4059 -1.1874,-20.699416 26.948,-39.8495398 32.76,-44.04269 -37.7831,2.7053373 -67.7045,28.620334 -103.15,39.85039 -30.2395,36.638303 -70.6424,-1.330406 -108.22,2.4175 -67.8932,-11.58128 -89.1567,-95.249312 -149.58,-115.6112 -33.4347,-14.066787 -57.021,-33.69719 -93.29,-40.5812 -8.3087,-35.62908 -51.6556,2.35494 -67.27,-30.422 -18.8133,-33.89445 -42.9399,-67.11711 -48.27,-105.825 -54.983,-8.31342 -78.4331,58.85694 -133.82,61.034 -77.1656,10.56162 -152.4417,38.60051 -220.62,74.403 -88.6995,32.035468 -171.7626,78.266384 -260.47,110.77221 -61.6799,8.1963284 -128.04273,37.783193 -188.586,21.05289 -39.26703,-90.003284 60.5406,-173.71453 100.057,-250.9641 3.5229,-5.42755 7.01949,-10.87214 10.545,-16.298 M 2702.97,2728 c -6.1591,-24.2642 20.7157,-57.7298 2.93,-76.61 -27.7883,6.3371 -54.7755,15.4331 -81.58,11.88 -28.632,4.3726 -54.2385,-4.4988 -77.44,-18.84 -60.0514,3.2694 -123.0846,-15.7119 -184.12,-21.14 -51.4689,-11.1819 -107.6569,-29.4186 -148.33,-62.33 -22.0144,-32.7407 7.4003,-67.6066 12.05,-102.24 -16.0286,-70.5428 -74.8896,-155.7572 -23.03,-227.68 26.9947,-43.1907 71.4393,-72.0987 76.77,-124.69 15.64,-36.9518 36.0371,-73.1702 65.31,-98.59 14.1547,-29.8789 10.0696,-70.3584 32.26,-97.38 17.3211,-13.841 -5.6194,-47.9407 -10.63,-70.89 -48.901,-37.9053 -28.5986,-105.2443 -31.76,-154.63 -14.8547,-26.0964 -1.0581,-64.3587 3.68,-82.98 -70.0873,10.1744 -127.8402,-66.6654 -110.95,-134.2 8.2064,-84.0724 20.1061,-168.2472 35.44,-251.03 4.6455,-39.6876 18.5735,-76.4396 10.36,-118.09 -0.7004,-74.2284 86.0918,-90.9645 133.17,-126.883 18.4228,-17.09107 64.2281,-53.38264 39.5,-46.589 -11.704,-21.23932 38.1484,-30.11072 6,-35.004 10.7384,-22.40468 3.0254,-34.44712 -15,-44.647 5.2159,-12.36096 35.2166,-17.51629 2.66,-13.852 -25.3821,-11.3742 -46.867,-6.28451 -72.14,1.284 -37.2122,-15.5568 -81.0078,7.14502 -116.48,-15.793 -31.2238,-5.28195 9.8671,29.75385 -5.02,46.89 -27.1827,44.92659 -76.3059,77.5931 -92.01,131.336 -45.9435,59.7107 -8.2498,145.1562 -65.35,200.808 -55.7084,107.1186 -163.8811,210.9466 -293.77,199.87 -87.1549,-8.4523 -124.9631,-93.8357 -170.52,-155.36 -35.5439,-24.1811 -89.1356,-28.3012 -103.26,-77.76 -20.1379,-38.7525 -88.6662,-40.3196 -108.91,-57.04 9.4888,-34.68 17.6653,-71.2003 55.7,-84.54 25.9635,-16.2362 57.3991,-23.19746 81.83,-39.583 17.1667,-22.08873 34.2279,-43.37926 46.83,-70.236 35.6206,-3.84354 15.458,-27.93003 20.35,-47.018 10.3583,-16.02837 21.0774,-50.98082 -8.18,-39.803 -25.3476,-7.85758 -47.4752,19.08648 -75.27,21.136 -40.292,9.58764 -83.9391,-6.87123 -120.06,-23.375 -34.4022,-29.41543 -63.5801,-63.532 -89.21,-98.845 -5.6572,-45.01562 21.9841,-86.72993 15.51,-132.61 6.8526,-32.5971 6.5012,-68.23571 12.81,-98.337 -14.6038,-15.41995 -54.8927,-60.99461 -34.86,-47.682 -9.3447,-46.73613 11.3029,-94.49433 17.03,-140.711 56.949,-65.55482 144.7565,-95.99997 227.02,-116.673 65.5447,-20.85434 123.6039,-70.0798 192.7,-76.033 45.0433,16.72274 87.0625,40.28576 135.1,50 56.5932,20.20162 106.5076,41.69091 160.45,64.158 1.8923,21.16385 3.7596,37.21257 20.15,8.882 21.0744,-36.0208 18.2567,-83.62612 58.04,-108.859 28.2298,-30.612417 71.9822,-41.205105 110.01,-26.951 -9.9074,-23.986292 -39.4374,-62.271905 -0.95,-81.7692 34.8118,-34.938002 20.1633,-84.400377 24.17,-127.0838 -15.3967,-10.90823 -15.514,-76.09252 -30.66,-33.671 -22.5247,41.13864 -15.1428,109.839435 -76.19,117.528 -63.6296,30.9299639 -144.2761,65.635762 -207.46,13.8935 -34.263,-28.99063 -52.3459,-77.457579 -98.89,-86.4152 -32.4929,-22.5823 -79.824,-32.05846 -96.57,-67.3483 -45.2849,6.55819 -72.5339,-43.11769 -76.3,-81.874 -91.1813,0.57809 -183.8852,-10.61803 -268.85,29.045 -112.6245,38.58658 -218.7992,90.82924 -331.66,129.1938 -48.8347,24.256397 -117.78688,44.802674 -165.422,15.4411 -16.59117,-52.24394 43.51591,-99.58738 58.598,-148.9069 4.05379,-8.13714 7.67429,-16.47922 11.39,-24.773 m 56.504,0 c -11.0594,29.93189 -48.15284,95.70716 7.21,94.743 112.4114,-15.76663 218.7465,-59.78976 324.7454,-94.743 116.9222,1.31375 236.9818,-2.61402 351.9646,1.94 10.0859,29.4492 32.799,46.84707 59.98,54.301 23.7923,47.63004 85.8073,62.95415 129.82,84.517 18.5984,20.956012 20.6748,54.154075 51.33,59.0524 59.0529,46.8751112 142.644,6.292546 198.68,-27.6865 41.2893,-46.56798 43.3022,-122.80166 104.03,-154.9109 24.3849,-28.22263 83.0503,-20.63359 104.56,-10.422 9.6627,18.5089 17.1031,26.33457 -9.56,29.181 -27.8548,12.15974 -45.2485,36.45188 -70.66,50.002 -26.8287,7.36143 16.3366,42.35353 11.77,60.887 20.6595,56.735559 -19.7396,106.9827662 -16.36,161.3615 -1.7745,32.273214 35.3792,42.44415 46.02,59.5365 -46.1245,22.30379 -98.095,0.1183 -143.59,24.652 -65.5918,26.00835 -85.9063,103.22224 -107.83,162.766 -0.2626,36.58688 -31.4624,-14.26944 -49.61,-15.329 -11.9037,-51.21108 -77.6561,-50.72515 -110.66,-84.645 -54.3802,-22.90428 -114.3895,-28.7118 -166.76,-55.405 -78.4629,11.88709 -143.271,71.46632 -223.7,81.396 -62.8456,22.87096 -154.7919,43.81557 -167.07,120.821 -6.0559,36.84677 2.2906,76.84955 20.72,105.237 8.3113,25.2857 17.4821,44.7648 -1.99,68.555 -9.2537,54.74775 -3.4505,109.58788 -10.05,164.174 13.5364,81.54772 107.6942,141.0409 185.19,105.405 22.4793,-12.69937 45.2168,-3.78292 68.29,-10.537 23.5002,-25.703 41.3731,-7.76574 39.2,21.758 12.3132,31.62957 -17.0169,65.34151 -6.39,98.395 -38.1377,47.04289 -71.0044,98.3857 -126.77,126.878 -55.4166,26.1846 1.5329,74.5225 24.44,101.72 40.4393,53.5197 112.6978,73.0087 137.26,140.67 46.3697,82.8048 165.5238,114.5821 239.39,47.9 83.6657,-53.8387 148.6412,-142.9596 173.51,-239.06 -0.5163,-89.80967 70.3388,-160.37114 94.37,-242.043 -2.5131,-29.47799 -24.8248,-55.15334 -41.33,-72.063 27.6909,-4.47967 52.2957,-12.11391 80.39,-6.498 29.1905,-7.21649 65.3452,10.14321 98.94,6.542 65.766,3.75313 123.4898,-36.91498 178.13,-67.457 16.1453,-13.70216 44.6156,-59.27041 57.72,-24.962 26.5452,8.52249 -5.0225,58.15353 17.17,79.391 -13.3278,39.85445 22.7555,77.81663 63.99,63.638 24.3285,-6.88191 25.3372,8.6617 31.43,27.119 13.0719,-8.37292 32.9444,-14.3294 16.52,8.008 -15.8221,23.78664 -23.5181,48.85302 -54.19,62.12 -18.827,23.08011 -65.7512,38.97956 -52.66,72.106 -83.741,31.7304 -178.2166,31.267 -257.42,71.669 -38.1614,38.3903 -22.0373,96.9559 -41.66,143.31 -21.708,58.7407 -5.4399,120.4963 -19.34,181 -11.299,68.4178 -0.4906,167.521 83.9,178.88 55.22,-7.5792 2.9424,51.8097 16.08,79.21 3.755,31.6797 26.3266,52.157 6.99,84.82 -23.5248,58.103 30.0951,102.2252 32.7,155.26 13.5709,16.5156 34.7952,46.1674 4.33,54.11 -19.8294,25.2904 -9.7105,60.8013 -37.54,81.15 8.4997,30.0484 -47.1646,28.4886 -42.39,63.4 -32.4393,31.1335 -27.0389,82.038 -62.06,111.11 -45.8923,53.5809 -72.5267,131.007 -30.73,194.97 11.0346,33.5416 24.39,61.9924 21.35,97.99 -8.547,75.4054 86.2514,89.3889 139.63,108.71 65.1288,15.7865 131.8005,8.2636 193.77,32.04 41.2002,-0.6957 91.6675,8.1398 123.33,-22.76 21.3955,6.6385 31.6908,27.0227 21.04,50.47 6.8962,18.4274 -4.245,42.255 4.47,57.5 -4.2927,4.1466 -10.1975,7.7856 -11.26,14.15 M 1102.38,-248 c 24.3215,32.71481 157.7317,12.81889 120.8161,0 181.3462,2.47032 367.9201,-4.91534 546.0339,3.648 43.142,40.8507 84.5892,89.65581 147.4,102.866 30.6647,11.88816 10.4573,76.133846 55.56,66.4734 29.6299,-0.09204 55.5488,22.1339 83.37,1.5901 46.0044,-18.386059 102.3853,-30.39593 115.54,-86.1105 20.7611,-50.84108 57.3744,-107.43966 120.1823,-88.467 46.9014,10.60357 184.0625,47.81111 152.2877,13.709 16.3835,30.29169 16.7763,73.675 43.05,94.633 -43.6286,9.28338 -106.737,-42.52307 -135.6,10.493 12.6713,59.30113 -14.748,119.5871099 -8.66,177.4207 26.8732,37.902522 67.7638,73.79011 112.51,81.6833 -60.0389,31.57185 -131.0838,19.05235 -195.27,38.473 -77.1725,1.77168 -122.8731,69.60916 -140.2,137.398 -10.2225,32.41732 -40.5228,86.571 -77.78,72.064 -3.0105,-40.69199 -51.7672,-51.17803 -68.23,-85.385 -51.9599,-54.1709 -121.5577,-77.07682 -193.62,-88.821 -73.6769,-32.75739 -139.0116,40.31378 -209.74,51.383 -58.4475,16.94812 -130.0731,30.63501 -165.97,82.159 -24.6446,65.67511 49.2386,132.8944 7.12,193.026 -6.3049,57.40164 -7.2614,118.49348 6.27,173.899 14.1336,31.16157 42.4489,66.89463 68.53,82.481 39.6312,-28.23181 89.1538,-41.7961 137.13,-32.407 22.1636,-8.6133 47.8755,-63.61521 53.63,-7.831 24.1373,37.13206 36.0399,80.90288 14.7,122.568 -3.0083,32.31222 -2.0053,64.5692 -32.62,85.521 -22.4717,43.24002 -82.1413,77.3144 -78.51,128.363 22.7501,58.8813 89.6433,80.5583 113.87,137.74 40.977,67.1861 134.1148,141.6429 209.95,78.96 65.1173,-34.8884 107.7799,-96.4944 145.45,-158.08 32.1055,-58.4373 28.566,-124.9338 62.96,-181.992 20.2805,-54.74734 69.4116,-131.76712 4.35,-175.193 -17.7725,-14.41151 -28.8708,-29.47902 0.78,-36.158 40.9567,-20.22003 91.1792,-26.80364 135.11,-36.491 85.2201,7.243 180.7917,-6.90801 248.51,-63.172 38.1086,-26.40514 56.9462,-73.90231 104.02,-86.96 16.1342,-18.29843 11.0502,-46.11299 40.02,-51.034 9.0103,-4.48441 7.1488,31.10598 16.79,42.25 14.3244,28.14673 11.4334,55.6598 -5.14,82.202 -13.2305,37.88832 15.828,80.7309 46.94,96.704 29.6272,-4.72032 36.2653,-45.86615 68.15,-52.573 23.5862,-12.08467 40.619,-44.29169 59.71,-54.854 -7.9279,24.25099 -11.6145,52.82732 15.18,71.03 7.9384,30.82954 34.8508,23.31384 30.22,-2.563 2.5049,-20.22777 5.5058,27.34813 4.12,33.986 5.135,14.87123 -34.7698,23.91382 -26.64,49.208 -0.1002,87.64358 -103.0962,120.67254 -114.6,205.378 -27.7072,15.2712 -36.161,48.0368 -57.64,66.122 -12.6996,30.4703 -41.4884,-2.8097 -66.89,1.5 -85.5538,-0.7438 -181.8211,3.1026 -253.64,51.04 -29.1589,77.0877 -58.6649,159.651 -44.19,243.9 -6.977,65.7275 -8.3777,152.5668 66.77,178.78 15.4543,15.8091 68.0601,-10.3023 44.03,26.22 -18.6728,47.7931 -2.0337,102.2938 9.21,146.77 -34.0886,38.685 -19.0899,106.0675 4.48,149.57 2.0278,32.7484 38.8851,55.2943 28.7,87.27 22.3095,19.4375 -29.248,31.1619 -22.51,53.7 -7.0884,26.5979 -27.109,50.1896 -41.67,74.51 -38.9519,30.1594 -65.1108,77.5806 -74.43,124.44 -46.542,49.9516 -77.0978,124.1461 -45.85,190.65 12.725,32.9332 33.1422,63.1913 26.95,99.57 15.314,70.9269 106.61,74.8681 163.23,92.95 70.9664,15.3528 147.6719,39.6456 219.23,21.2 13.5754,-6.5628 29.2103,-18.293 32.79,-30.46 5.2415,25.0664 28.9939,20.3705 42.17,29.49 10.9493,21.4549 17.4018,91.5867 17.59,65.89 -12.4157,24.0778 15.5028,55.7854 -9.54,73.67 213.214,-1.8448 432.645,3.6776 642,-2.74 -2.7645,-14.188 4.9225,-20.2683 13.14,-34.21 10.2851,-17.8621 -21.0559,-35.7321 6.21,-52.95 5.8481,2.8475 11.6768,12.4445 20.4,-24.24 15.4596,12.7863 47.1698,-30.1738 38.29,4.09 -6.3429,26.039 2.7375,64.8952 30.96,67.43 -28.1556,7.0443 -4.3462,12.2075 7.65,14.47 13.3456,5.8228 21.0264,20.6279 33.5,28.15 m 68.34,0 c -32.4589,-50.2012 -78.7182,-115.1683 -44.6,-175.36 37.3359,-31.6397 -44.1811,-6.1654 -32.15,-41.53 -7.8214,-10.7172 -33.6973,-11.6911 -28.97,-39.08 -5.4062,-29.8854 -9.1637,-59.1274 -11.82,-91.42 -16.9736,9.1275 -33.7202,-3.51 -46.26,25.39 -27.2659,59.1059 -16.7132,135.8925 -58.64,187.78 -17.4686,22.6144 -23.8191,57.6136 -47.61,80.81 32.8716,15.0155 4.8504,71.5983 -28.4261,53.41 -69.382,-0.449 -140.3742,0.892 -208.7639,-0.66 -7.8026,-41.5825 4.2418,-106.947 -35.2,-131.76 -35.3694,11.5492 -10.0404,72.0475 -42.63,92.02 -12.5918,26.5242 -28.1193,55.5781 -64.9315,40.4 -50.6948,-3.8667 -199.8547,-17.3423 -162.3685,-4.98 -9.0261,-31.6477 1.4749,-64.6102 -5.5,-96.16 11.1626,-23.4671 -11.0307,-42.263 -13.59,-60.52 -26.1901,-13.4464 -63.6372,-13.9245 -63.64,-51.62 -30.282,15.6392 -46.7283,53.2093 -88.33,46.07 -93.0427,-3.9827 -190.9464,-26.732 -269.84,-77.3 -33.6406,-48.8151 -47.2073,-110.3006 -58.19,-168.32 -6.2035,-71.4868 49.7657,-127.0467 72.37,-191.18 29.41,-27.3533 44.1751,-63.705 71.69,-91.51 21.9254,-16.6969 14.4839,-56.6366 44.01,-71.61 27.1081,-23.7112 -28.4962,-32.1794 -12.89,-62.93 -45.8968,-63.9511 -52.5144,-155.9366 -23.12,-223.97 -25.1476,-44.6965 -14.1866,-107.3418 3.43,-150.76 -21.1649,-15.3989 4.1864,-52.565 -33.51,-40.49 -78.0924,-3.1825 -96.2119,-93.2726 -92.08,-156.5 -20.4563,-68.5681 3.169,-143.3328 42.14,-199.78 82.5995,-58.6966 207.1547,-58.9132 292,-3.36 14.9321,7.3584 32.289,37.8501 37.35,9.48 17.3274,-23.5851 27.9296,-53.5286 32.55,-82.14 28.9349,-35.403 45.5075,-84.8845 81.61,-109.817 28.9304,-47.20146 79.5558,-82.91497 84.65,-141.341 46.1484,-40.62145 98.6426,-76.30071 132.9,-126.929 -17.5785,-26.33758 13.6371,-33.88469 23.59,-37.685 -43.6608,7.59689 -28.1626,-37.51787 -18.98,-61.698 4.0694,-20.0135 -26.9415,20.47527 -35.27,-10.34 -22.9958,13.43033 -37.0365,58.98545 -67.29,23.136 -34.8134,-6.09201 -14.3958,-34.39741 -22.44,-51.291 -29.5218,1.66686 -63.6057,1.52997 -81.54,-18.737 -20.8385,22.41881 -50.334,-1.68521 -71.41,4.514 -6.8181,32.51126 -13.6453,106.63442 -61.95,75.741 -35.5349,-57.81359 -22.1019,-135.91267 -5.85,-195.362 -49.1603,10.08304 -82.1403,45.55598 -113.29,82.385 -22.5817,20.32899 -42.0656,38.00937 -69.19,52.187 -65.0005,82.43038 -169.4996,131.45131 -274.64,131.77 -71.8822,7.096 -153.9263,25.34387 -204.11,79.999 8.2184,54.26559 76.1657,97.04014 39.03,158.018 -35.814,99.4831 -54.9364,208.1731 -130.02,288.11 -37.4049,43.5062 -99.11,114.9254 -160.82,76.31 -74.8617,-34.7814 -101.7879,-120.0095 -154.06,-178.66 -33.1663,-77.6372 80.2438,-122.2382 71.42,-199.436 19.3076,-52.97134 23.4042,-114.44815 -19.18,-157.134 -7.4475,-26.84695 -4.1132,-80.83565 -44.27,-48.18 -44.0659,46.45672 -112.6577,17.17553 -164.39,47.477 -54.725,-34.04814 -52.7853,-111.63751 -55.8,-169.688 9.4739,-31.97455 29.5398,-56.76455 17.01,-92.2 -7.9313,-48.75109 -39.09,-119.57742 17.75,-151.084 77.1085,-31.25049 159.1981,-48.97162 235.31,-84.04 65.211,-3.90183 138.1912,7.26924 192.35,46.182 37.1583,49.82644 96.9894,86.99186 102.53,153.307 56.7668,11.37771 107.6477,-42.73281 136.78,-85.879 25.8607,-61.36872 51.722,-143.45175 132.34,-145.986 75.5874,-21.79874 158.3817,-24.44256 229.91,-52.154 15.3189,-5.65684 46.2196,-43.75994 11.33,-42.217 -34.4852,-20.169372 -65.6587,-48.698901 -93.76,-73.4467 -46.1705,-1.316316 -19.6684,-65.895354 -12.37,-92.5331 10.0961,-35.496314 64.1237,-4.084426 86.38,-34.7954 24.5988,-13.06189 43.3453,-39.32484 68.26,-47.5838 -10.0468,-39.03643 -39.2494,-70.14191 -48.16,-109.339 m 1184.53,2976 c -39.6558,-53.9161 -77.9312,-131.3081 -34.37,-194.33 9.7784,-10.5822 56.0054,-17.0854 36.79,-36.25 -27.2736,-2.0121 -72.1216,0.5254 -85.05,-25.67 -10.4042,-17.2131 -39.07,-21.5164 -35.29,-50.05 -33.0748,-30.3112 -31.1346,-76.1793 -52.03,-113.65 -2.9766,-42.0365 16.2736,-84.3595 43.57,-114.64 -38.192,-25.9951 -63.2647,34.2739 -86.81,56.22 -37.6894,72.1729 -61.9445,149.6445 -66.71,231.76 -14.0578,43.9295 -30.3012,89.3962 -59.5,123.46 -8.2278,23.9342 -15.9714,45.3718 -33.78,63.9 -3.0535,19.9074 16.8638,40.4836 -6.98,57.56 -53.7804,3.9429 -117.8158,0.5632 -175.54,1.69 -12.0382,-50.821 5.9195,-128.1311 -44.77,-159.56 -45.8893,-13.0355 -24.0721,52.7179 -34.78,75.58 -8.89,31.8679 -34.3912,54.4228 -48.31,83.98 -48.1136,-6.0481 -187.8713,-27.071 -160.63,-7.76 -1.6479,-31.5834 3.4848,-61.8393 -4.67,-93.29 8.6712,-29.8981 -7.117,-63.5982 -14.57,-88.06 -32.0193,-7.4778 -62.2959,-20.625 -75.61,-49.16 -33.7403,-9.6008 -55.9359,35.6657 -92.57,28.5 -81.3141,3.1928 -173.2367,-16.4458 -237.28,-69.11 -57.1156,-73.8053 -76.9311,-184.3709 -18.31,-264.06 26.8297,-56.1114 65.2839,-106.8207 102.54,-154.11 16.9675,-19.0101 11.5199,-46.5501 36.31,-60.86 37.4988,-30.7595 -27.9666,-48.2549 -19.68,-82.4 -39.3857,-65.4872 -38.9776,-155.1202 -12.63,-223.13 -26.4618,-45.6675 -3.455,-99.9496 18.89,-140.51 -29.5096,-17.0297 -11.0585,-61.4605 -34.55,-76.96 -11.3677,-26.54 -61.7147,-11.1493 -77.15,-43.97 -31.71,-43.7384 -31.0546,-102.6053 -37.08,-153.53 8.4148,-57.2571 34.2375,-120.7819 99.69,-128.2 94.3395,-25.7696 193.88,28.911 257.85,91.33 -12.6479,-34.1206 31.6895,-24.4155 30.74,-54.53 9.7728,-29.4766 31.2276,-53.0028 31.31,-86.13 27.4468,-55.7885 66.6052,-99.63149 108.03,-145.258 34.4993,-38.22553 55.468,-83.60432 91.13,-118.074 43.1902,-42.26658 88.9198,-86.03828 139.86,-119.158 18.1921,-12.9108 35.4902,-5.82924 55.41,-9.988 16.6805,-13.69677 64.1014,-0.63929 55.91,-29.829 -10.8037,-7.71344 -16.1567,-18.39465 -35.66,-21.267 -25.1008,-13.08167 -70.2102,-62.25656 -36.12,-81.482 12.1562,-5.98755 -3.5879,-31.4505 9.05,-45.12 11.3084,-15.92513 -11.854,-22.19108 -13.3,-34.233 -21.9344,34.28192 -50.0301,-14.19239 -44.62,-34.648 -23.8844,22.33953 -63.6618,36.04471 -77.55,1.543 -26.4574,2.85844 -56.8127,29.02534 -80.04,4.223 -36.0846,24.37806 -75.4388,5.3941 -111.44,-2.249 -23.6119,27.88278 -55.7663,27.54878 -82.31,5.953 -50.369,-16.90585 -20.2601,-82.12754 -10.42,-112.132 -57.7138,12.59722 -106.8877,50.85238 -159.2,76.9 -59.7323,49.79325 -120.2242,99.26872 -178.79,150.309 -66.6863,58.09844 -155.3048,61.3607 -238.58,65.26 -57.2447,15.10655 -128.3155,14.7498 -160.47,73.708 -55.1341,45.49902 -1.9971,112.56618 21.13,158.649 1.3962,76.32168 -31.0285,149.7687 -56.8,220.893 -37.3063,54.0054 -73.8876,119.847 -136.28,146.59 -71.7917,16.3789 -105.6141,-68.4279 -141.16,-114.87 -29.572,-42.1533 -18.2985,-94.4827 14.86,-131.923 19.0687,-53.96125 30.937,-112.87238 36.32,-169.702 -15.2966,-53.31075 -53.7988,-98.81841 -54.13,-155.801 -34.0765,-44.69305 -85.8247,27.05711 -130.78,20.236 -41.9816,4.06863 -98.0681,0.27593 -104.92,-51.783 -19.3967,-32.8115 -8.7785,-68.37828 11.08,-96.472 3.5857,-56.17455 -32.5338,-116.77301 -6.11,-169.116 66.131,-35.16977 141.9211,-52.03914 212.06,-79.315 75.3837,-16.37202 165.171,11.33602 205.62,80.625 23.6011,33.2097 46.7275,76.39507 39.44,115.655 42.4944,34.74386 102.3472,30.67914 147.23,3.127 51.911,-54.48304 104.7269,-109.94158 123.13,-185.332 64.1371,-77.44029 178.4182,-63.63259 267.24,-89.204 48.2898,-1.54435 86.0295,-57.46487 84.84,-100.9598 -16.9493,-28.398256 -46.2156,-45.758397 -62.36,-74.7916 -52.2158,-27.1111748 22.9651,-55.077595 36.87,-77.6884 21.2834,-32.40917 100.1327,-50.18281 67.05,-100.3622 -6.6267,-30.88066 -10.1139,-62.38516 -18.12,-92.973 m 1154.19,2976 c -12.0425,-53.9688 -55.0391,-97.8729 -64.77,-151.31 10.2522,-12.2791 23.6974,-21.2012 29.12,-36.84 22.0205,-10.9323 41.2218,-41.3717 41.49,-63.75 -58.1454,-13.6784 -117.5246,-40.3701 -145.82,-96.01 -38.4553,-30.013 -59.4715,-87.0635 -36.24,-132.99 29.5257,-38.5633 61.1299,-78.4359 64.71,-129.84 -0.7126,-30.0208 14.504,-87.3633 -9.99,-102.62 -27.4607,38.5529 -45.9778,87.1406 -82.85,120.89 -13.4023,25.3222 -51.3343,23.9698 -47.1,57.33 -14.0938,20.6687 -47.5884,2.8268 -47.41,36.39 -2.8804,21.3462 -16.9319,38.3948 -35.93,39.36 -20.903,52.7238 -1.9336,109.4327 -23,163.13 -7.6869,90.9928 -74.4679,160.1643 -98.74,245.43 -6.1558,24.3446 0.2208,66.1744 -39.0061,50.83 -29.5515,-12.4642 -101.8238,-68.1461 -104.5539,-20.99 -11.6045,-47.8786 4.6957,-122.6693 -44.69,-151.11 -31.8699,-13.7349 -62.3304,10.8334 -44.97,45.46 8.0751,49.9018 -28.5306,87.6401 -52.07,126.64 -31.9555,-8.6457 -127.5067,-34.151 -114.22,-9.19 -22.8029,-43.819 0.1342,-94.4313 -11.52,-141.58 -11.3458,-30.5998 -16.435,-69.2495 -54.07,-76.85 -31.8311,-5.2481 -36.4911,-50.72 -70.94,-39.66 -15.5028,-36.6835 -30.797,19.3373 -56.97,13.04 -80.1633,20.8765 -182.7584,-0.2426 -233.73,-68.5 -51.2284,-75.9777 -48.6671,-176.3264 5.58,-249.97 22.131,-48.8923 63.2116,-86.7588 87.9,-131.73 0.5582,-37.5983 56.9982,-50.9783 35.92,-88.56 -32.2449,-22.9986 -23.9426,-60.1672 -44.54,-88.31 -23.3146,-62.7432 -6.2008,-133.4141 1.63,-194.13 -7.1589,-31.1423 -0.9841,-72.563 24.56,-88.51 -14.0001,-18.4738 7.5045,-62.8427 2.92,-49.63 -25.7973,-29.5998 -4.719,-73.1947 -33.39,-96.73 -11.7881,-44.8309 -80.2647,-37.6906 -94.8,-86.28 -32.9534,-64.3031 -22.4509,-170.2469 61.01,-186.32 83.7746,-11.2852 144.2751,56.3088 209.76,94.01 19.5845,23.8586 50.8814,12.4565 62.89,-11.22 38.569,-10.2082 12.6475,-66.4957 52.29,-81 5.6605,-38.4361 13.1474,-81.3433 41.2,-110.12 17.9649,-3.8738 74.5159,-102.78291 48.96,-60.996 39.0241,-27.10293 53.6361,-83.96417 100.93,-98.878 0.913,-19.63383 30.5978,-11.457 22.48,-37.698 53.8741,-62.28851 127.3988,-103.28821 204.78,-126.028 26.3489,-7.40045 51.0749,-18.70463 77.82,-3.239 22.1016,6.31756 50.8018,-14.9716 57.37,-29.242 -24.4741,-8.00783 -21.7585,-31.9038 -44.28,-43.96 -27.4524,-18.61836 -13.9857,-42.12684 0.12,-63.585 -18.5809,-7.26989 3.3665,-32.13249 -14.87,-47.119 35.5953,-35.09958 -28.9829,-1.54953 -17.23,-41.874 9.8003,-19.19604 2.0894,-40.0255 -4.7,-58.053 -32.3712,9.44242 -35.4614,-32.34819 -47.39,-41.244 -25.1875,6.83989 -28.6121,-34.57768 -34.12,-42.688 -26.6499,11.62087 -59.0014,50.70528 -83.01,15.817 -19.0142,1.1662 -24.0956,-47.65287 -31.76,-12.319 -23.2627,24.3146 -65.7364,-12.26977 -91.79,15.335 -24.9364,4.89972 -39.582,-14.39941 -63.78,10.784 -39.8819,22.21289 -89.4999,-26.29179 -126.8,14.002 -32.6569,3.64887 -44.3229,-44.82344 -24.06,-66.438 -3.3311,-17.40823 -9.7134,-65.68639 -31.81,-36.132 -150.3407,36.33881 -267.3434,141.63001 -377.2,243.767 -67.4123,54.78748 -153.8147,21.8158 -231.13,29.147 -61.6463,-6.02641 0.2296,-65.41937 17.89,-88.34 48.3848,-48.51842 53.7341,-124.49205 94.33,-177.127 86.0446,-51.77348 192.7252,-34.54323 281.8,-73.71 50.2342,-41.12052 68.2262,-121.490942 32.08,-176.9337 -34.685,-58.462398 36.0637,-103.354594 71.47,-135.8657 7.4461,-24.65054 -18.9334,-89.3721 -5.09,-67.0386 -3.3971,-28.64353 3.6863,-56.6856 5.77,-85.104 m 489.01,0 c 0.3715,21.36454 -31.5498,-17.57778 -44.0661,0 -62.2671,-0.97879 -131.5225,-0.75265 -189.2539,5.265 -61.1771,-12.57814 -137.2846,-1.53853 -204.06,-5.265 -28.3101,61.39073 32.9517,138.72537 -27.51,186.5142 -41.9805,29.084851 -63.9989,78.919885 -39.64,126.3859 18.5279,68.178 -7.9741,136.70189 -49.22,189.0759 -48.3492,55.09196 -133.0543,13.85333 -196.41,37.894 -56.7573,4.0501 -100.8813,45.61005 -110.44,100.974 -15.9506,37.24752 -17.6356,101.24996 39.72,94.628 66.1345,-10.96619 102.1491,-74.51395 156.84,-106.693 27.6287,-27.32871 53.824,-54.8941 79.75,-81.444 65.3367,-34.94173 146.8309,-33.14365 208.48,-73.819 12.7293,-12.47969 20.6473,-55.33059 39.17,-48.674 28.2912,27.77985 -17.2408,62.24573 14.54,88.917 4.8902,25.93842 12.2688,54.12022 44.79,45.557 24.8443,-15.48354 73.555,23.27078 88.24,-21.14 9.0335,-25.53879 34.9074,36.13009 58.55,6.442 31.0875,9.20312 59.1294,-28.75134 80.6,-32.375 14.8397,28.8327 30.6841,-10.8034 45.75,-3.345 4.5217,19.03207 30.0326,34.48563 45.14,17.581 30.1459,20.09503 32.844,-47.54124 68.3,-30.608 17.0307,7.63551 -3.9799,29.1932 25.38,29.718 16.8263,0.71008 27.383,-10.89583 19.51,12.56 3.1489,52.09583 50.9661,75.56956 89.97,98.997 23.7272,34.56072 51.7198,71.69567 79.08,98.834 -15.2787,15.90841 9.9978,33.81446 7.29,36.949 -24.1782,11.71229 -9.1795,58.50461 -45.95,56.704 -3.7999,37.46695 46.7655,76.01787 36.84,117.117 -31.4012,22.26541 53.6247,48.41022 2.28,50.816 -28.7896,0.0143 -77.3384,-26.80906 -84.47,15.394 -68.8927,-38.62028 -148.7201,15.3503 -214.64,36.514 -33.149,28.94299 -98.6122,42.47545 -99.19,93.266 -18.5078,2.62291 -21.2605,26.00451 -45.52,19.725 -15.436,25.63099 -40.5276,44.92499 -54.2,69.398 -35.1741,16.4536 -60.9038,57.2085 -64.22,90.847 -42.2263,-11.0089 -14.6997,49.0345 -42.29,59.27 3.6256,36.7949 -44.6845,47.1543 -33.62,88.12 0.8295,24.7108 -38.3454,26.5536 -31.39,55.15 -33.9697,-1.9054 -61.072,29.0189 -96.01,8.27 -54.9565,-3.9954 -74.3832,-65.189 -120.75,-87.35 -23.9368,-29.9384 -95.4974,-37.083 -96.42,15.94 -27.4452,63.2834 38.5113,108.0614 91.48,122.8 21.1777,25.1456 9.1929,64.6656 31.96,89.18 -17.1537,32.18 -0.052,68.8541 4.63,98.46 -27.2244,21.8483 5.6992,64.7956 -26.36,82.94 -15.2075,29.8117 6.2818,59.9291 -13.07,86.56 -8.211,56.8041 -14.8103,122.1306 16.28,171.42 -13.4938,33.6981 36.4667,54.7726 24.42,86.27 29.554,23.0548 -30.4803,37.1468 -28.41,65.05 -11.3966,50.0365 -61.8147,82.6537 -77.12,132.94 -66.3034,72.2164 -43.2814,193.2169 22.76,256.28 56.5171,54.8213 147.3184,46.808 206.84,5.98 18.9649,27.3106 55.8489,5.8323 67.12,43.31 19.9728,22.4779 55.3671,22.4967 75.34,38.48 10.1434,13.3302 1.7358,15.5959 4.87,25.4 -14.8008,11.54 27.309,30.592 14.82,52.57 8.9887,51.9196 2.8977,104.8049 2.57,156.25 41.2289,-1.7111 91.5588,15.455 106.42,-34.68 36.8314,-35.695 36.2931,-86.7265 27.6,-132.76 5.3811,-34.8224 59.0467,-13.2742 78.78,2.2 35.8107,43.2893 24.3809,111.053 31.61,165.24 44.1297,1.4996 105.1997,13.9579 101.94,-47.33 13.3187,-76.8833 73.6918,-135.2803 87.56,-211.24 18.4191,-63.1474 40.9414,-135.9178 10.61,-197.42 27.4291,-5.7898 26.2428,-41.4545 52.63,-44.06 14.782,-17.1961 17.1937,-44.2759 28.73,-59.3 33.4579,19.3461 20.4961,-38.9384 50.96,-34.87 37.4855,-23.2277 72.9096,-64.9266 70.71,-109.41 37.0431,-33.4851 31.5837,-92.3928 81.48,-115.92 21.8931,-11.4241 37.3084,-45.1327 53.56,-53.94 -2.5164,36.3719 20.6201,-14.3433 20.65,9.72 1.3199,35.8916 -43.6907,53.991 -51.77,89.71 -20.9541,54.3806 14.7793,113.3574 -6.11,169.58 -0.3814,60.5249 -61.7065,102.4575 -53.42,163.05 8.8933,56.062 62.6203,94.0441 106.95,123.32 30.1517,12.3895 60.7893,35.0597 93.24,23.5 -0.7108,17.0722 5.4093,33.7235 11.67,41.88 -13.0059,48.567 -54.9604,86.3717 -65.82,133.57 7.4715,28.5985 15.0394,54.8115 38.79,73.69 31.2843,12.6286 -34.9464,42.4395 -2.2946,45.47 41.0591,16.1955 23.5769,-42.3147 59.8246,-46.66 3.0229,-1.6191 6.0429,-3.2554 8.93,-5.11 m 0,-78.8 c -32.2291,-7.8175 -46.2397,52.8734 -78.81,48.63 20.9591,-16.4973 40.8834,-37.0245 57.37,-56.21 38.7597,-39.6083 14.019,-110.5945 21.44,-161.5391 11.1921,-49.8933 -58.5385,-26.3985 -84.46,-46.3209 -54.0288,-11.7924 -108.3137,-54.4794 -127.75,-106.48 -3.7849,-61.9062 43.538,-112.9685 43.37,-176.03 8.8095,-57.0193 -12.453,-118.7132 26.38,-168.54 14.93,-27.5444 53.1609,-32.6628 71.19,-51.82 -36.1929,-23.0181 -38.0929,-73.5264 -18.1,-106.08 0.9625,-22.4825 -19.8459,-33.956 -20.19,-48.18 9.9965,-18.724 27.8434,-49.341 -3.47,-41.67 -16.3529,-13.9249 -20.7439,24.2495 -39.51,25.03 -34.6299,31.5663 -20.4589,83.4559 -35.36,122.43 -15.6706,17.3066 -42.2022,15.9377 -35.1,43.52 -35.2027,32.998 -64.9198,71.4029 -83.13,113.05 -11.5171,19.4343 -41.7696,20.9115 -28.29,49.74 -19.3409,34.0783 -44.1627,76.8185 -84.95,81.51 7.6228,30.3412 -35.7385,18.1536 -29.52,48.27 -20.2869,24.7822 -44.1146,48.9163 -60.86,77.59 -48.1052,12.1076 4.5783,60.552 -1.03,93.28 -6.809,65.1195 -31.5574,128.392 -51.83,190.48 -31.5901,50.2084 -50.9254,106.2114 -62.56,162.62 -10.7114,30.7228 -33.0599,49.2802 -66.22,36.21 -1.0657,-53.4781 0.2336,-112.8653 -24.95,-160.97 -24.0025,-22.4185 -73.3775,-52.239 -99.97,-21.86 -4.5686,46.5156 20.5822,99.9234 -23.21,136.19 -21.6533,24.9753 -30.1226,63.1854 -72.0415,47.72 -18.3047,-3.7834 -3.9657,-41.4186 -8.3385,-59.16 8.1995,-44.4204 -1.1159,-90.4469 0.27,-134.59 -20.1881,-25.5924 0.2843,-67.5116 -42.73,-73.79 -47.1517,-14.297 -76.1725,-59.5802 -124.06,-70.48 -40.5409,-20.3782 -88.6949,16.686 -134.38,8.75 -92.9084,-23.753 -136.1197,-154.1519 -83.49,-234.03 28.6523,-57.3793 64.8707,-110.4262 92.88,-166.56 23.7487,-16.3616 14.1405,-52.2772 14.53,-73.29 -31.9631,-33.0031 -19.0809,-78.6255 -39.73,-115.89 -10.6375,-69.6432 7.4078,-134.7293 20.87,-201.13 11.591,-27.7318 14.24,-62.3441 25.68,-89.86 -14.4371,-44.6132 15.8847,-86.1525 7.14,-129.76 5.5398,-43.594 56.2498,-59.1849 90.72,-56.82 21.8139,-22.9803 49.7267,-16.4848 73.88,-29.89 4.2182,-18.3174 -1.2937,-37.1095 23.32,-42.48 12.6818,-28.958 4.0318,-65.5137 37.21,-80.36 2.4808,-28.5426 24.9707,-48.9101 26.71,-75.46 5.1171,-5.6453 133.4659,-201.51528 54.77,-77.91 35.3883,-22.6148 53.4446,-63.00405 86.98,-87.302 18.7435,-14.25919 56.2595,-3.05302 49.76,-37.513 65.1212,-70.33829 171.5634,-97.60227 266.69,-93.287 20.6435,18.71473 43.3772,-16.95925 69.88,-3.936 27.3402,-9.25957 37.3165,23.37389 63.98,6.879 14.9639,10.29889 40.2466,43.84983 35.93,3.673 1.2401,-34.60951 -2.5242,-63.29287 -18.35,-92.846 13.7612,-49.28678 -35.658,-119.76389 20.94,-154.126 24.3273,0.76838 21.9193,-36.98257 48.6,-40.154 26.024,-11.6133 24.1728,-49.04468 4.03,-64.193 -42.8638,-8.01987 -79.7465,-47.04508 -95.42,-82.782 -21.1309,-8.59321 -37.6592,-9.80412 -37.52,-35.205 -47.5044,-8.73819 -85.4854,-43.35445 -116.23,-77.128 0.9428,-14.61056 32.0407,-52.26757 -2.87,-44.505 -25.6392,-4.69246 -24.0564,-46.31402 -50.64,-26.469 -20.2295,-17.17184 -61.3723,-20.67684 -62.51,14.996 -18.6761,2.14276 -30.5811,35.99008 -46.33,11.253 -13.0285,-6.99321 -14.8117,-19.91363 -35.9,-20.254 -20.2472,5.16557 -34.5028,-34.89043 -46.5,-3.394 -7.7869,35.23861 -57.0223,-11.95223 -52.29,27.673 -30.8052,40.73193 -79.3813,17.97458 -114.87,3.91 -11.7596,21.78122 -29.744,34.72474 -53.31,21.689 -35.0951,21.09277 -50.322,-24.59406 -32.51,-49.561 -0.7396,-17.67201 33.0716,-9.87091 10.73,-33.067 -13.1492,-18.76958 -24.9501,-37.60939 -33.73,-61.316 -6.8778,-23.453289 -17.9956,29.92225 -33.11,27.081 -34.359,16.87268 -60.9884,75.31205 -104.83,51.987 1.2318,-59.27195 0.6403,-118.785259 -15.35,-175.9859 18.5761,-43.067021 71.3012,-61.571733 78.12,-109.9155 22.9614,-33.39696 -25.9882,-67.67001 -9.01,-106.0856 -6.6203,-61.06418 56.8399,-42.43306 96.3,-42.252 21.1049,20.51902 44.4023,50.0931 66.4,63.291 10.4155,-36.34807 56.1771,-7.11051 69.35,-40.451 25.2579,-6.19502 41.9891,12.5841 66.41,-0.202 32.1864,-12.06765 26.9061,38.95882 59.39,29.847 35.6983,-16.91363 56.3893,18.61283 84.01,31.553 0.6683,-25.64882 -3.4611,-68.20958 29.95,-74.527 -1.6232,-3.70013 1.1855,-7.02599 1.43,-10.665 m 46.46,0 c -8.6512,18.51735 10.8382,30.16881 -15.61,39.151 -26.5034,19.97762 -13.5641,53.78926 -14.75,76.559 -21.5924,-6.88505 -39.8655,53.671696 -55.74,27.577 -4.0873,-38.77423 -45.3927,-56.83507 -78.2,-39.288 -27.9109,-6.45082 -55.1926,7.43077 -57.11,-34.449 -29.9557,-7.32277 -62.5213,-9.72618 -86.78,8.566 -22.9211,-1.99389 -46.1491,12.07711 -60,24.884 -28.1503,-14.72757 -67.3176,-19.49883 -83.56,-52.874 -33.9431,-17.29111 -5.381,44.13063 -3.79,59.032 0.1403,45.485582 -21.6555,87.404526 -47.65,124.0878 -52.3129,20.8857099 -40.6673,132.27593 22.13,111.3754 7.8644,-25.6968 22.9159,-37.787347 49.06,-35.8038 14.1921,-5.471115 40.7151,-29.266433 28.13,3.7813 -4.5424,25.262413 1.1508,47.88076 27.75,51.8493 19.4928,23.67575 6.8124,70.7288 28.28,89.135 16.0391,-9.29785 26.398,-35.9163 40.29,-5.316 32.314,14.20995 67.0919,2.1175 74.78,-34.553 6.5351,-29.98553 40.5339,33.75301 56.24,-1.062 1.6499,-22.89271 14.2738,-39.13089 35.05,-23.365 10.6751,9.85329 23.5926,11.40848 39.6,13.453 26.0467,23.08099 40.7924,-33.38262 60.51,-15.83 21.1828,-34.89228 47.7089,-18.48682 71.15,0.417 15.7055,4.66178 26.0474,15.59194 40.12,24.906 20.6784,-2.33456 31.1746,-28.2026 40.58,2.43 17.5102,12.70465 61.8317,8.67211 35.46,39.482 -28.5477,38.80678 35.808,81.13716 66.18,86.041 29.1578,-11.59108 29.1257,39.87694 56.75,40.658 -0.6045,29.47067 41.3844,6.47876 43.53,36.419 34.7816,26.12307 78.9421,70.93253 124.04,39.132 14.5611,-4.23451 38.1335,-18.21829 35.04,9.561 -1.5734,25.1835 18.9422,14.52609 23.99,10.04 -10.2589,40.28549 -53.6585,60.63164 -71.96,94.938 -31.0312,-8.78189 -56.0415,16.42544 -57.77,44.495 -22.0651,9.29 -11.9064,39.16225 -36.22,50.059 -7.8163,39.47321 -0.3648,83.11373 1.39,124.415 0.6427,27.93937 -33.1469,71.88685 -4.32,95.352 22.4981,20.93588 -39.2938,39.1871 -16.94,65.443 -10.5804,7.3992 -88.1639,-46.39406 -65.22,-35.578 -24.2341,-4.40947 -42.9035,7.85277 -62.74,-11.262 -36.9828,-7.25278 -69.3287,6.93774 -106.2552,-3.66952 -74.976,-3.89159 -160.1415,22.45167 -208.1048,79.25452 5.0877,35.18199 -32.4452,20.79111 -45.09,42.913 -23.6897,-18.51917 -43.9884,25.9254 -60.87,40.344 -24.5447,28.1826 -67.9295,52.5371 -66.8,92.98 -19.6729,19.5145 -19.9141,49.815 -41.12,71.18 -23.1752,32.1582 -38.366,68.3212 -48.71,105.96 -26.7187,29.4484 -56.9695,58.0948 -95.65,74.23 -24.0261,22.8752 -57.8529,39.7602 -59.07,79.15 -15.6997,49.5581 -26.8936,101.786 -33.51,153.48 -23.5131,76.4084 -50.6985,162.5564 -24.67,244.46 2.1848,29.0546 11.3192,61.4604 24.81,88.07 -3.5594,24.792 -3.7437,53.9228 -3.94,75.83 -45.475,37.7274 -51.9653,106.9141 -87.72,153.17 -33.6998,67.8471 -1.4088,171.0482 73.08,193.15 55.5532,-0.3561 113.7406,-2.3118 158.09,37.94 37.3807,31.385 91.194,47.4206 122.36,82.91 11.5427,45.0024 1.3361,94.3995 14.13,137.88 -2.0702,-25.4991 31.407,-10.3336 25.7,-38.45 -10.9583,-37.8858 33.0254,-62.7523 65,-47.29 62.681,-11.7646 109.3218,46.0597 115.48,103.62 7.8867,19.9298 4.2861,69.944 32.9,60.48 13.844,-41.8396 9.9669,-88.7916 36.52,-127.89 28.3502,-72.9392 81.8947,-139.8394 67.59,-222.56 -2.5002,-32.1261 -15.7433,-64.5522 -20.54,-93.28 43.5282,-15.1416 55.323,-63.7742 92.25,-87.13 7.7892,-25.7338 68.5119,-80.1705 48.91,-66.2 28.4264,-6.08 47.3317,-44.7614 58.43,-69.92 7.0681,-30.2083 39.6922,-51.0261 48.21,-80.57 18.6404,-39.9033 70.302,-69.3914 67.75,-115.79 42.2562,-11.1936 42.0887,-60.9741 51.14,-91.36 25.7377,-12.697 -11.1828,-36.5855 17.53,-43.9 -13.08,-25.8457 35.2998,-26.4377 23.78,-58.07 9.7468,-26.5824 32.2935,-22.6966 43.6,-50.02 10.0125,-29.3809 29.1779,-24.6229 38.36,3.24 6.6429,38.3527 55.5587,36.5279 76.99,11.2 15.3469,55.6833 -47.3786,94.4957 -27.16,151.41 11.9892,46.7941 -10.2428,95.1634 10.39,140.97 -8.9474,22.1986 3.6413,43.6503 -33.04,38.4 -85.3298,5.0274 -84.4799,118.3147 -92.09,181.38 1.747,58.2529 -46.8916,115.467 -26.76,172.14 41.031,47.5826 107.098,75.5621 168.66,78.72 m -679.69,-421.2 c -48.1518,24.1835 -105.5527,72.8751 -159.73,33.21 -15.0223,-12.0782 -33.3236,-28.1688 -45.73,-36.53 -10.1245,-13.674 -10.4109,-27.4604 0.04,-40.11 -21.0771,-15.6424 10.384,-45.5923 -8.34,-67.22 6.2307,-89.8207 25.5749,-183.6511 79.74,-256.96 2.111,-36.0657 31.9226,-54.5338 55.25,-74.98 34.4268,-49.2686 109.2251,-72.4255 119.57,-141.66 16.5514,-54.2381 -0.8422,-117.228 21.23,-167.87 26.5251,-30.8454 73.1331,-21.9768 101.44,-47.97 21.6152,4.0424 31.4455,-12.1584 47.13,9.73 60.2576,4.2067 61.8984,79.6062 51.77,124.82 -35.0235,109.5028 -20.7356,229.3414 -75.8603,332.5915 -35.2965,74.3402 -39.8127,158.7666 -83.7497,230.5185 -23.1577,42.6034 -66.8514,70.8022 -102.76,102.43 z m -297.97,14.28 c -30.7771,-99.3435 -43.6583,-208.772 5.57,-305.25 14.1765,-85.9335 70.8693,-153.1499 118.36,-221.84 28.1144,-26.7813 42.4368,-66.3 73.42,-88.11 -22.3107,-82.0113 31.1407,-159.5696 81.76,-218.55 18.2859,-10.7361 29.9204,-29.4541 53.98,-25.6 52.2104,-30.2993 112.2971,-51.2019 173.03,-36.32 58.7745,-0.026 105.4109,43.0148 157.01,65.37 52.043,22.4188 112.8955,82.382 66.08,139.49 -6.5446,28.4787 -33.5229,38.3417 -38.6,66.44 -6.6757,20.2221 -15.8082,41.059 -18.39,63.13 13.2163,38.983 -24.9621,73.2794 -23.69,113.98 -20.1243,87.2477 -44.3806,178.585 -99.78,249.14 -22.9027,80.3345 -78.9265,149.7058 -123.27,220.59 -65.5973,71.7726 -145.5773,129.892 -211.47,201.18 -19.2612,9.285 -27.5474,34.73 -38.46,46.19 -112.5393,-33.0974 -156.0638,-166.8802 -175.55,-269.84 z m 592.69,-346.23 c -28.6206,63.7636 -63.3922,123.3034 -87.97,187.49 -45.2444,88.0924 -92.7589,181.5307 -181.38,235.63 -56.4637,36.0385 -113.3962,123.9144 -189.42,94.41 -82.5418,-61.0002 -100.9072,-165.6898 -129.19,-257.34 -22.1094,-113.2978 25.4378,-226.8439 73.13,-326.96 49.5667,-50.9185 81.0578,-117.6818 131.49,-165.81 41.0635,-23.5546 6.6924,-81.791 22.73,-119.61 11.7247,-43.1611 35.2645,-84.6877 57.1,-122.2 25.0481,-3.5722 26.4145,-33.4528 54.45,-34.21 48.3665,-5.377 94.4931,-31.0248 144.94,-17.58 50.229,-1.583 92.627,31.1 136.78,51.32 40.4249,27.1393 90.2847,64.6937 61.49,120.43 -47.4847,93.2599 -46.4161,198.8412 -79.91,297.06 -7.8584,18.6674 -7.7181,38.9909 -14.24,57.37 z m 31.98,-277.39 c -26.704,134.9384 -49.2962,272.703 -120.61,392.69 -17.9222,42.1211 -29.6518,89.9852 -50.74,127.42 -56.3837,91.5035 -142.8897,160.1314 -234.67,213.11 -62.3083,32.9288 -125.1219,-18.8649 -144.44,-77.38 -58.0821,-103.4968 -57.4623,-231.346 -10.8188,-339.9723 22.6036,-43.8728 35.4243,-109.4567 79.4288,-130.6977 36.2992,-43.9097 59.4693,-101.1869 108.61,-134.5 19.8657,-64.1065 8.0745,-137.6432 41.38,-199.41 -9.9024,-37.4401 42.5698,-29.6015 41.4,-66.06 22.9252,-11.249 48.3648,15.7274 67.9,-8.18 21.917,-14.9141 50.3922,0.7385 75.58,-2.34 39.8787,-3.9071 67.7426,21.6588 103.84,32.03 43.3395,27.6845 87.5131,74.8141 60.55,130.14 -6.1622,20.9973 -12.7123,41.7333 -17.41,63.15 z m -320.92,-30.64 c 13.267,-53.3324 -4.7836,-140.1092 64.93,-156 30.6848,-4.0489 59.486,-20.7075 90.56,-16.81 38.1177,-4.2959 86.4125,0.065 107.34,34.43 44.8065,28.3907 50.0233,86.416 29.99,133.24 -33.7545,120.7756 -30.4546,252.7558 -97.71,362.76 -40.1821,89.2765 -50.7962,198.6881 -136.07,261.22 -47.4658,47.9218 -107.2141,89.7896 -173.37,105.64 -52.6098,4.9258 -80.6194,-45.5218 -110.77,-76.32 -7.8104,-6.0216 -6.3669,-25.6491 -13.04,-35.49 4.5629,-30.5436 -14.3637,-63.8859 -8.7,-97.1 -3.118,-102.7541 47.3345,-192.8116 91.64,-280.95 4.1388,-23.3937 17.3675,-37.1387 39.61,-39.52 31.276,-39.3577 71.0751,-71.6764 99.03,-113.5 11.2415,-25.4897 14.8964,-54.0169 16.56,-81.6 z m -320.24,333.08 c 3.2228,-57.5893 37.8272,-110.4652 68.98,-157.78 31.3389,-53.4211 77.4508,-100.3421 107.16,-152.09 -27.2186,-71.9801 43.9138,-122.6348 70.43,-182.3 32.4193,-58.7623 106.5761,-61.674 152.43,-101.46 52.4834,-21.8376 107.6344,-7.132 160.98,-5.28 34.3958,14.6122 71.557,22.4261 97.05,48.42 56.2475,26.3202 129.2482,53.0609 158.14,114.81 20.3988,50.2665 -32.4914,88.2568 -58.85,123.34 -25.64,19.5278 -27.6894,50.3492 -40.04,78.33 28.5251,30.5165 -19.8528,49.861 -11.56,84.31 -21.6877,59.8419 -33.3625,120.4969 -51.72,181.97 -15.7557,38.0855 -42.3329,72.3844 -61.22,105.89 -29.8333,75.113 -76.498,145.937 -122.1,213.39 -62.4309,88.5146 -176.8464,142.4183 -211.47,248.47 -12.1264,30.6271 -0.8369,115.195 -55.16,90.14 -50.3039,-41.6247 -107.5562,-76.5316 -157.23,-119.68 -23.3801,-41.5059 -29.4755,-89.4082 -44.89,-134.03 -6.0842,-122.1517 -68.2515,-243.4706 -30.14,-364.99 15.2365,-21.727 17.9896,-48.1672 29.21,-71.46 z M 1938.11,680.804 c -11.0684,30.33847 -31.0133,67.30122 -46.78,89.129 -49.8903,-42.73967 -92.0059,-102.39187 -96.32,-172.182 -21.1953,-70.64095 -106.5302,-44.73509 -157.7,-29.947 -65.9682,9.21099 -59.4151,-77.7578 -59.93,-121.946 -15.0948,-36.9517 -0.4101,-75.74553 43.33,-76.046 59.2516,-19.45715 120.5292,-46.91359 181.84,-16.724 74.8067,34.44662 38.4042,121.70917 55.79,182.61 20.5791,33.07843 66.9952,39.43737 88.6,66.391 11.9557,26.26656 -4.1031,52.7752 -8.83,78.715 z M 272.032,-116.31 c 28.44094,40.499542 -3.25965,95.45682 -28.451,128.6082 -41.23993,13.508083 -93.89569,73.002342 -123.338,9.7702 19.39661,-51.628495 51.75723,-102.949114 87.459,-146.3414 20.69799,-31.76796 48.2902,-22.73695 64.33,7.963 z M 853.534,906.28 c 13.16296,23.49182 -36.96957,43.06624 -53.85,20.16 -30.31912,-15.29371 -91.28495,-1.60488 -99.265,-43.129 22.34053,-45.76608 99.79192,-41.69079 128.065,-2.278 9.00464,7.76995 17.0283,16.50914 25.05,25.247 z m -540.32,823.96 c 21.89213,33.2722 -37.20477,18.2451 -4.431,-0.31 1.26401,-3.4149 3.19818,-4.3159 4.431,0.31 z m 6.9,40.05 c 9.84732,-19.0375 4.22649,21.321 0,0 z M 2970.76,-82.8565 c 25.5492,6.074161 37.0167,35.63914 65.54,31.1629 32.7864,-0.432046 63.927,12.047675 74.88,44.60889 30.1674,26.621405 -10.8782,50.108851 -34.98,44.90641 -11.4156,34.508013 -46.5784,10.001433 -71.51,20.9502 -25.1658,-12.314697 -53.1007,-34.256705 -65.69,-56.75919 15.548,-18.257794 0.3491,-32.645818 -16.12,-41.38521 4.9982,-20.569794 29.2471,-38.788165 47.88,-43.484 z m 41.83,-12.6038 c 25.5913,23.28149 65.5137,13.608508 95.5,24.9202 10.3172,24.821192 22.4368,51.36954 52.29,46.4417 7.2647,15.2136723 54.0983,31.8693129 24.68,40.357 -22.1407,25.721665 -53.9846,68.229255 -91.11,45.3735 -28.0707,-0.03389 -31.2607,59.56482 -67.06,33.71 -11.0877,26.50928 -46.5663,19.24156 -48.27,-10.4577 -29.3393,-25.041424 -56.0912,-53.634496 -59.91,-93.38589 -45.5111,9.8840322 -51.3095,-55.223412 -13.46,-73.73291 18.6666,-22.43524 48.7317,-21.46917 69.45,-39.1276 15.3129,6.9784 31.6937,5.98776 37.89,25.9017 z m 8.79,72.9034 c 31.4775,-1.057106 56.0109,33.976237 15.08,43.9502 -24.2303,6.812444 -63.5186,2.746508 -73.2,-16.44438 -7.8988,-22.39283 -0.6048,-66.359828 29.61,-33.75062 9.5243,1.939009 18.977,4.374934 28.51,6.2448 z m 67.76,1849.3669 c -15.8772,14.0267 -43.6118,-0.075 -13.19,-13.67 11.8457,-20.4418 -12.8234,-51.6548 3.6,-77.87 -4.5045,-21.8472 5.2679,-33.702 16.03,-51.11 -8.39,-51.2669 46.3292,-84.3234 91.66,-92.21 13.9928,14.7245 10.78,-31.0044 18.88,0.49 7.1795,12.4243 26.9579,20.293 34.8,23.7 5.0958,22.9877 -20.908,8.8307 -1.97,24.04 -32.1012,41.8431 -5.8551,111.972 -58.32,141.35 -24.6116,23.5508 -60.743,35.3483 -91.49,45.28 z m -56.84,16.83 c 17.2505,-25.6105 9.248,-54.3144 16.81,-81.69 -13.3513,-31.1085 20.0068,-50.4858 19.57,-81.64 -1.7415,-30.8171 24.3437,-54.7289 27.11,-82.45 31.1899,1.1047 27.8221,-47.2343 61.52,-40.16 34.1778,-11.9643 89.0587,-31.5189 97.62,20.14 9.5076,21.197 8.3236,43.2806 25.58,58.56 10.6511,27.9966 -34.598,31.8547 -32.221,63.1044 -8.3832,41.3441 -12.9021,84.8865 -53.659,109.6656 -25.1815,30.8555 -60.7869,54.1006 -92.39,75.3 -30.1142,10.6321 -54.6625,-15.8287 -74.54,-28.04 4.3451,-2.9631 3.6065,-8.366 4.6,-12.79 z m -16.37,25.1 c -33.379,-8.5199 11.9428,-36.1966 2.07,-58.73 -2.0002,-28.1345 16.1594,-51.7152 11.44,-80.41 19.8324,-42.8891 14.4867,-92.6779 47.01,-130 38.6695,-49.9031 85.786,-95.7648 151.55,-112.52 26.0801,-7.6657 57.8722,-34.9656 79.96,-35.97 19.5014,67.1745 -33.7926,140.8921 -3.15,201.55 -3.5127,14.9311 -27.3617,15.1004 -25.66,38.52 -20.6189,70.6949 -46.2992,146.4602 -114.73,184.69 -33.9859,35.0166 -103.7381,66.2418 -135.44,13.09 -8.4159,-4.9957 -4.2146,-16.4529 -13.05,-20.22 z m -21.05,-4.22 c -11.118,-21.5874 2.1768,-48.2007 -0.2,-72.75 14.9362,-77.081 23.7643,-162.3022 80.64,-220.73 18.3354,-59.6883 74.6557,-94.1728 128.67,-119.98 83.8158,-58.2996 72.5942,-167.7512 71.02,-256.36 16.1767,-27.9795 55.6048,-26.4426 83.35,-35.64 35.9118,-4.3072 52.0275,45.6562 43.76,77.55 -15.0342,61.8065 -45.1835,120.1793 -30.65,185.66 3.069,82.6842 -47.1434,155.8178 -57.72,233.81 20.2692,35.5624 -29.0186,62.0571 -28.28,98.1 -16.2009,88.5316 -91.921,147.9551 -168.27,181.98 -25.9673,0.3544 -46.8918,39.1228 -70.92,14.2 -22.5498,-11.7315 -51.9083,-27.6458 -61.28,-49.09 17.7266,-6.0538 23.9286,-24.6773 9.88,-36.75 z m 115.59,-143.42 c 4.2975,-25.2592 48.3281,-41.2545 18.63,-65.01 -2.0735,-32.3207 49.849,-6.1694 29.69,18.47 15.5018,24.0543 30.546,47.1534 12.34,74.49 -30.3588,35.6044 -64.2515,23.8864 -60.66,-27.95 z m 116.22,-128.29 c 6.6253,9.1491 -13.1603,9.201 0,0 z m 100.54,-385.65 c 20.0956,-9.5992 14.5096,15.2319 0,0 z M 3239.9,-20.8036 c 10.1987,-26.905072 28.3212,-10.610304 11.93,7.8458 -1.3168,21.5681541 -18.3403,23.426379 -15.44,-0.5261 0.472,-2.712614 2.1652,-4.990297 3.51,-7.3197 z M 2004.65,635.395 c -17.3479,56.90909 -53.4023,116.64785 -17.13,174.925 55.8537,69.25935 16.2746,154.44383 0.49,228.98 -22.6254,43.5471 -63.0865,76.4438 -97.2,110.66 -54.4886,35.0124 -94.5276,-39.5153 -112.82,-81.52 -6.8223,-61.8341 28.9781,-121.32976 34.11,-183.325 29.1342,-59.18782 5.1554,-120.31218 -29.47,-170.708 -27.3086,-35.61981 -12.5973,-105.02952 -60.03,-120.754 -57.3244,4.24585 -128.4789,58.25276 -178.44,3.511 -24.111,-35.9951 3.5056,-80.72256 -9.64,-121.483 1.3531,-41.61027 -32.5577,-110.78245 31.33,-120.329 79.5454,-19.48625 158.3063,-74.63386 241.85,-39.886 85.0383,23.56566 89.3723,126.17547 104.3,194.918 38.6638,20.74458 78.9862,48.54315 105.95,80.736 -6.1687,14.25829 -6.6527,30.04209 -13.3,44.275 z m -645.04,492.595 c 19.434,-7.1509 -12.6102,9.7529 0,0 z m 543.87,-321.136 c 23.629,-16.28921 30.4638,41.0851 51.92,49.543 27.782,55.36759 19.1435,126.68086 -14.6,176.733 -20.9825,13.7949 -55.8025,51.5585 -79.42,33.41 -36.6616,-41.1208 -8.3284,-104.45389 0.33,-153.145 7.025,-37.6939 28.8448,-70.83204 41.77,-106.541 z M 1766.16,493.166 c -42.8488,3.1962 -108.1431,38.29544 -138.14,-4.986 -8.9515,-42.15283 -6.5087,-97.93793 47.66,-101.876 51.3769,-29.38118 143.2028,-7.23639 128.4,65.748 -3.3031,19.9353 -20.1037,33.92353 -37.92,41.114 z m 86.72,131.048 c 7.4683,-27.04061 73.4954,14.2542 30.7,27.24 -17.5011,1.9886 -25.7225,-12.66943 -30.7,-27.24 z m -137.74,-188.85 c 22.4896,-1.57961 -18.3886,13.36399 -0.37,0.15 z" />
    </g>
    <g
       transform="matrix(11.8081,0,0,11.8081,-4.19507e-14,4.19507e-14)"
       font-size="34.375"
       font-weight="400"
       font-style="normal"
       id="g152"
       font-family="MS Shell Dlg 2"
       stroke-opacity="1"
       stroke-linejoin="bevel"
       stroke-linecap="square"
       stroke-width="1"
       stroke="#000000"
       fill="none" />
    <g
       transform="matrix(11.8081,0,0,11.8081,-4.19507e-14,4.19507e-14)"
       font-size="34.375"
       font-weight="400"
       font-style="normal"
       id="g154"
       font-family="MS Shell Dlg 2"
       stroke-opacity="1"
       stroke-linejoin="bevel"
       stroke-linecap="square"
       stroke-width="1"
       stroke="#000000"
       fill="none" />
    <g
       transform="matrix(11.8081,0,0,11.8081,-4.19507e-14,4.19507e-14)"
       font-size="34.375"
       font-weight="400"
       font-style="normal"
       id="g156"
       font-family="MS Shell Dlg 2"
       stroke-opacity="1"
       stroke-linejoin="bevel"
       stroke-linecap="square"
       stroke-width="1"
       stroke="#000000"
       fill="none" />
    <g
       font-size="34.375"
       font-weight="400"
       font-style="normal"
       id="g158"
       font-family="MS Shell Dlg 2"
       stroke-opacity="1"
       stroke-linejoin="bevel"
       stroke-linecap="square"
       stroke-width="1"
       stroke="#000000"
       fill="none"
       transform="matrix(1,0,0,1,0,0)" />
    <g
       transform="matrix(11.8081,0,0,11.8081,-4.19507e-14,4.19507e-14)"
       font-size="34.375"
       font-weight="400"
       font-style="normal"
       id="g160"
       font-family="MS Shell Dlg 2"
       stroke-opacity="1"
       stroke-linejoin="bevel"
       stroke-linecap="square"
       stroke-width="1"
       stroke="#000000"
       fill="none" />
    <g
       transform="matrix(11.8081,0,0,11.8081,-4.19507e-14,4.19507e-14)"
       font-size="34.375"
       font-weight="400"
       font-style="normal"
       id="g162"
       font-family="MS Shell Dlg 2"
       stroke-opacity="1"
       stroke-linejoin="bevel"
       stroke-linecap="square"
       stroke-width="1"
       stroke="#000000"
       fill="none" />
    <g
       transform="matrix(11.8081,0,0,11.8081,0,0)"
       font-size="34.375"
       font-weight="400"
       font-style="normal"
       id="g164"
       font-family="MS Shell Dlg 2"
       stroke-opacity="1"
       stroke-linejoin="bevel"
       stroke-linecap="square"
       stroke-width="1"
       stroke="#000000"
       fill="none" />
    <g
       transform="matrix(11.8081,0,0,11.8081,0,0)"
       font-size="34.375"
       font-weight="400"
       font-style="normal"
       id="g166"
       font-family="MS Shell Dlg 2"
       stroke-opacity="1"
       stroke-linejoin="bevel"
       stroke-linecap="square"
       stroke-width="1"
       stroke="#000000"
       fill="none" />
    <g
       transform="matrix(11.8081,0,0,11.8081,0,0)"
       font-size="34.375"
       font-weight="400"
       font-style="normal"
       id="g168"
       font-family="MS Shell Dlg 2"
       stroke-opacity="1"
       stroke-linejoin="bevel"
       stroke-linecap="square"
       stroke-width="1"
       stroke="#000000"
       fill="none" />
    <g
       transform="matrix(11.8081,0,0,11.8081,0,0)"
       font-size="34.375"
       font-weight="400"
       font-style="normal"
       id="g170"
       font-family="MS Shell Dlg 2"
       stroke-opacity="1"
       stroke-linejoin="bevel"
       stroke-linecap="square"
       stroke-width="1"
       stroke="#000000"
       fill="none" />
    <g
       font-size="34.375"
       font-weight="400"
       font-style="normal"
       id="g172"
       font-family="MS Shell Dlg 2"
       stroke-opacity="1"
       stroke-linejoin="bevel"
       stroke-linecap="square"
       stroke-width="1"
       stroke="#000000"
       fill="none"
       transform="matrix(1,0,0,1,0,0)" />
  </g>
</svg>
